<svg width="26" height="26" viewBox="0 0 26 26" fill="none" xmlns="http://www.w3.org/2000/svg">
<path d="M13 25C19.6274 25 25 19.6274 25 13C25 6.37258 19.6274 1 13 1C6.37258 1 1 6.37258 1 13C1 19.6274 6.37258 25 13 25Z" stroke="black"/>
<path d="M16.1859 9.74976L16.5664 8.44434M15.8653 17.3273L15.7483 11.2493L15.9373 10.6018L15.8653 17.3273Z" stroke="black" stroke-width="0.7"/>
<path d="M15.1287 9.87412L15.2808 8.56055M16.8001 17.9111L14.9302 11.5995L15.016 10.8453L16.8001 17.9111Z" stroke="black" stroke-width="0.7"/>
<path d="M14.4437 16.509L14.5791 14.0545L13.3517 12.7688L13.527 10.548L14.5791 10.8985C15.19 10.7428 15.6186 10.626 15.8649 10.548C16.2343 10.431 16.4151 10.1974 16.257 9.84683C15.9819 9.37926 15.1637 9.94154 14.5791 10.0585C13.9273 9.61283 13.3294 9.14568 12.6279 9.26226C11.9263 9.37883 11.6571 9.80268 11.5401 10.7597C11.4621 11.3977 11.3816 12.0284 11.2984 12.6518L11.1896 14.5221L10.8754 15.339" stroke="black" stroke-width="0.7"/>
<path d="M12.8263 8.6779C13.3428 8.6779 13.7615 8.25923 13.7615 7.74276C13.7615 7.22629 13.3428 6.80762 12.8263 6.80762C12.3099 6.80762 11.8912 7.22629 11.8912 7.74276C11.8912 8.25923 12.3099 8.6779 12.8263 8.6779Z" stroke="black" stroke-width="0.7"/>
<path d="M11.7969 15.3407L12.1244 14.7561L12.6279 13.4785L13.6394 14.2885V16.0418" stroke="black" stroke-width="0.7"/>
<path d="M10.7726 18.3214C11.3996 18.3214 11.9078 17.8131 11.9078 17.1861C11.9078 16.5591 11.3996 16.0508 10.7726 16.0508C10.1456 16.0508 9.63727 16.5591 9.63727 17.1861C9.63727 17.8131 10.1456 18.3214 10.7726 18.3214Z" stroke="black" stroke-width="0.7"/>
<path d="M10.8755 19.1565H16.2571C16.8001 19.1565 17.1211 18.9632 17.1507 18.6127C17.1828 18.2381 16.9364 18.0221 16.642 17.8215C15.678 17.2032 14.6752 16.6476 13.6398 16.1582C12.6335 15.6718 11.6157 15.2154 10.876 15.2154C10.6108 15.205 10.3463 15.2483 10.0982 15.3426C9.85021 15.437 9.62377 15.5804 9.43251 15.7644C9.24124 15.9483 9.08908 16.169 8.98515 16.4131C8.88121 16.6573 8.82764 16.9199 8.82764 17.1853C8.82764 17.4507 8.88121 17.7133 8.98515 17.9575C9.08908 18.2016 9.24124 18.4223 9.43251 18.6062C9.62377 18.7902 9.85021 18.9336 10.0982 19.0279C10.3463 19.1223 10.6108 19.1656 10.876 19.1552L10.8755 19.1565Z" stroke="black" stroke-width="0.7"/>
</svg>
