<svg width="35" height="35" viewBox="0 0 35 35" fill="none" xmlns="http://www.w3.org/2000/svg">
<path d="M17.5 34C26.6127 34 34 26.6127 34 17.5C34 8.3873 26.6127 1 17.5 1C8.3873 1 1 8.3873 1 17.5C1 26.6127 8.3873 34 17.5 34Z" stroke="black" stroke-width="1.5"/>
<path d="M21.8807 13.0303L22.404 11.2354M21.4399 23.4495L21.2791 15.0922L21.5389 14.2018L21.4399 23.4495Z" stroke="black"/>
<path d="M20.427 13.2017L20.6362 11.3955M22.7252 24.2525L20.1542 15.5741L20.272 14.537L22.7252 24.2525Z" stroke="black"/>
<path d="M19.4852 22.3251L19.6715 18.9502L17.9838 17.1824L18.2248 14.1287L19.6715 14.6107C20.5114 14.3966 21.1007 14.236 21.4393 14.1287C21.9473 13.9678 22.196 13.6467 21.9785 13.1646C21.6002 12.5217 20.4752 13.2949 19.6715 13.4557C18.7752 12.8429 17.9531 12.2006 16.9884 12.3608C16.0238 12.5211 15.6537 13.1039 15.4928 14.4198C15.3856 15.2971 15.2748 16.1643 15.1605 17.0215L15.0108 19.5931L14.5789 20.7163" stroke="black"/>
<path d="M17.2613 11.557C17.9715 11.557 18.5472 10.9813 18.5472 10.2712C18.5472 9.56103 17.9715 8.98535 17.2613 8.98535C16.5512 8.98535 15.9755 9.56103 15.9755 10.2712C15.9755 10.9813 16.5512 11.557 17.2613 11.557Z" stroke="black"/>
<path d="M15.8459 20.7187L16.2961 19.9149L16.9885 18.1582L18.3792 19.272V21.6827" stroke="black"/>
<path d="M14.4375 24.8173C15.2996 24.8173 15.9985 24.1185 15.9985 23.2563C15.9985 22.3942 15.2996 21.6953 14.4375 21.6953C13.5754 21.6953 12.8765 22.3942 12.8765 23.2563C12.8765 24.1185 13.5754 24.8173 14.4375 24.8173Z" stroke="black"/>
<path d="M14.5789 25.9651H21.9786C22.7252 25.9651 23.1666 25.6993 23.2072 25.2173C23.2514 24.7022 22.9126 24.4052 22.5077 24.1295C21.1823 23.2792 19.8035 22.5153 18.3798 21.8424C16.9962 21.1736 15.5966 20.546 14.5795 20.546C14.2149 20.5318 13.8512 20.5913 13.5101 20.721C13.1691 20.8507 12.8578 21.0479 12.5948 21.3009C12.3318 21.5538 12.1226 21.8572 11.9796 22.1929C11.8367 22.5287 11.7631 22.8898 11.7631 23.2547C11.7631 23.6195 11.8367 23.9807 11.9796 24.3164C12.1226 24.6521 12.3318 24.9555 12.5948 25.2084C12.8578 25.4614 13.1691 25.6586 13.5101 25.7883C13.8512 25.918 14.2149 25.9775 14.5795 25.9633L14.5789 25.9651Z" stroke="black"/>
</svg>
