<svg width="58" height="58" viewBox="0 0 58 58" fill="none" xmlns="http://www.w3.org/2000/svg">
<path d="M29 57C44.464 57 57 44.464 57 29C57 13.536 44.464 1 29 1C13.536 1 1 13.536 1 29C1 44.464 13.536 57 29 57Z" stroke="black" stroke-width="1.5"/>
<path d="M36.434 21.4151L37.322 18.3691M35.686 39.0961L35.413 24.9141L35.854 23.4031L35.686 39.0961Z" stroke="black" stroke-width="1.5"/>
<path d="M33.967 21.7066L34.322 18.6416M37.867 40.4596L33.504 25.7326L33.704 23.9726L37.867 40.4596Z" stroke="black" stroke-width="1.5"/>
<path d="M32.369 37.1876L32.685 31.4606L29.821 28.4606L30.23 23.2786L32.685 24.0966C34.1103 23.7333 35.1103 23.4606 35.685 23.2786C36.547 23.0056 36.969 22.4606 36.6 21.6426C35.958 20.5516 34.049 21.8636 32.685 22.1366C31.164 21.0966 29.769 20.0066 28.132 20.2786C26.495 20.5506 25.867 21.5396 25.594 23.7726C25.412 25.2613 25.224 26.7329 25.03 28.1876L24.776 32.5516L24.043 34.4576" stroke="black" stroke-width="1.5"/>
<path d="M28.595 18.9148C29.8001 18.9148 30.777 17.9379 30.777 16.7328C30.777 15.5277 29.8001 14.5508 28.595 14.5508C27.3899 14.5508 26.413 15.5277 26.413 16.7328C26.413 17.9379 27.3899 18.9148 28.595 18.9148Z" stroke="black" stroke-width="1.5"/>
<path d="M26.193 34.4612L26.957 33.0972L28.132 30.1162L30.492 32.0062V36.0972" stroke="black" stroke-width="1.5"/>
<path d="M23.803 41.4181C25.266 41.4181 26.452 40.2321 26.452 38.7691C26.452 37.3061 25.266 36.1201 23.803 36.1201C22.34 36.1201 21.154 37.3061 21.154 38.7691C21.154 40.2321 22.34 41.4181 23.803 41.4181Z" stroke="black" stroke-width="1.5"/>
<path d="M24.043 43.3645H36.6C37.867 43.3645 38.616 42.9135 38.685 42.0955C38.76 41.2215 38.185 40.7175 37.498 40.2495C35.2488 38.8067 32.909 37.5104 30.493 36.3685C28.145 35.2335 25.77 34.1685 24.044 34.1685C23.4253 34.1444 22.8081 34.2454 22.2293 34.4655C21.6506 34.6856 21.1222 35.0203 20.676 35.4495C20.2297 35.8787 19.8746 36.3936 19.6321 36.9633C19.3896 37.533 19.2646 38.1459 19.2646 38.765C19.2646 39.3842 19.3896 39.997 19.6321 40.5667C19.8746 41.1365 20.2297 41.6513 20.676 42.0806C21.1222 42.5098 21.6506 42.8444 22.2293 43.0646C22.8081 43.2847 23.4253 43.3857 24.044 43.3615L24.043 43.3645Z" stroke="black" stroke-width="1.5"/>
</svg>
