<svg width="32" height="32" viewBox="0 0 32 32" fill="none" xmlns="http://www.w3.org/2000/svg">
<g opacity="0.8">
<g opacity="0.8">
<path opacity="0.8" d="M15.5059 31C23.7901 31 30.5059 24.2843 30.5059 16C30.5059 7.71573 23.7901 1 15.5059 1C7.22159 1 0.505859 7.71573 0.505859 16C0.505859 24.2843 7.22159 31 15.5059 31Z" stroke="white" stroke-linecap="round" stroke-linejoin="bevel"/>
<path opacity="0.8" d="M20.7319 24.9344H10.2799C9.29663 24.9341 8.35374 24.5433 7.65857 23.848C6.9634 23.1526 6.57288 22.2096 6.57288 21.2264V10.7744C6.57314 9.79131 6.96378 8.84857 7.65892 8.15343C8.35406 7.45829 9.2968 7.06765 10.2799 7.06738H20.7319C21.715 7.06765 22.6577 7.45829 23.3528 8.15343C24.048 8.84857 24.4386 9.79131 24.4389 10.7744V21.2264C24.4389 22.2096 24.0484 23.1526 23.3532 23.848C22.658 24.5433 21.7151 24.9341 20.7319 24.9344V24.9344Z" stroke="white" stroke-linecap="round" stroke-linejoin="bevel"/>
<path opacity="0.8" d="M15.5058 20.4887C17.9851 20.4887 19.9948 18.4789 19.9948 15.9997C19.9948 13.5205 17.9851 11.5107 15.5058 11.5107C13.0266 11.5107 11.0168 13.5205 11.0168 15.9997C11.0168 18.4789 13.0266 20.4887 15.5058 20.4887Z" stroke="white" stroke-linecap="round" stroke-linejoin="bevel"/>
<path opacity="0.8" d="M20.7198 12.2124C21.5074 12.2124 22.1458 11.5739 22.1458 10.7864C22.1458 9.99879 21.5074 9.36035 20.7198 9.36035C19.9323 9.36035 19.2938 9.99879 19.2938 10.7864C19.2938 11.5739 19.9323 12.2124 20.7198 12.2124Z" fill="white"/>
</g>
</g>
</svg>
