<svg width="146" height="48" viewBox="0 0 146 48" fill="none" xmlns="http://www.w3.org/2000/svg">
<path d="M30.2006 25.6062C26.3346 25.2062 27.4936 21.2942 24.3626 19.5842C23.1396 18.9182 21.5246 18.8552 19.2506 20.0842C19.0836 20.1742 19.0376 20.2322 18.9506 20.2232C18.8636 20.2142 18.8316 20.1422 18.6386 19.9662C17.8976 19.2882 17.1956 18.6292 16.5586 17.9912C16.4746 17.9062 16.4716 17.8802 16.4716 17.8552C16.4716 17.8302 16.4826 17.7842 16.5716 17.7552C19.1606 16.7652 21.5776 12.9792 23.6716 14.9842C23.6841 14.998 23.7014 15.0066 23.72 15.0081C23.7386 15.0095 23.7571 15.0039 23.7716 14.9922C23.7848 14.9825 23.7944 14.9687 23.799 14.9529C23.8035 14.9372 23.8026 14.9204 23.7966 14.9052C22.8756 12.4552 21.6226 11.9052 20.2966 12.0742C18.4966 12.2932 17.0656 14.0642 15.1756 13.6662C13.4316 13.2952 13.2986 11.0132 13.6106 9.57215C13.6174 9.54636 13.6304 9.52265 13.6486 9.50315C13.6682 9.48493 13.6924 9.47247 13.7186 9.46715C16.0826 9.01015 18.2886 8.32015 19.4286 5.16715C20.2966 2.77315 20.5016 1.91915 19.9226 1.19115C19.7849 1.01774 19.6086 0.878946 19.4077 0.785875C19.2068 0.692803 18.9869 0.648036 18.7656 0.655155C17.8297 0.663116 16.8949 0.722875 15.9656 0.834155C14.7005 0.903599 13.4417 1.06131 12.1986 1.30615C11.2202 1.60707 10.3559 2.19733 9.7196 2.99915C6.4196 6.53015 5.6756 9.68615 5.4886 13.6782C5.48756 13.6906 5.48321 13.7025 5.476 13.7127C5.46879 13.7229 5.45898 13.731 5.4476 13.7362C5.43485 13.7414 5.42069 13.7422 5.40743 13.7384C5.39417 13.7346 5.3826 13.7264 5.3746 13.7152C4.4746 12.5572 3.6896 10.5392 0.0635974 11.1002C0.0470051 11.1024 0.0316901 11.1103 0.02022 11.1225C0.00874993 11.1347 0.00182192 11.1505 0.000597407 11.1672C-0.00158094 11.184 0.002239 11.201 0.0113848 11.2153C0.0205307 11.2295 0.0344162 11.2401 0.0505974 11.2452C4.6396 12.6892 1.3156 17.6452 6.1506 17.7252C6.17964 17.727 6.20778 17.736 6.2326 17.7512C6.26135 17.7698 6.28288 17.7976 6.2936 17.8302C7.33316 20.3258 9.08116 22.4621 11.3216 23.9752C10.786 24.4258 10.39 25.0198 10.1799 25.6875C9.96986 26.3553 9.95449 27.069 10.1356 27.7452C10.4116 28.9572 10.9726 30.2232 11.2876 31.3362C11.4543 31.9567 11.421 32.6141 11.1924 33.2147C10.9639 33.8152 10.5517 34.3284 10.0146 34.6812C10.0013 34.6887 9.99067 34.7001 9.98406 34.7139C9.97745 34.7276 9.9752 34.7431 9.9776 34.7582C9.98034 34.7743 9.9881 34.7892 9.99977 34.8006C10.0114 34.8121 10.0264 34.8197 10.0426 34.8222C10.5037 34.9034 10.9767 34.887 11.431 34.7739C11.8853 34.6607 12.3108 34.4535 12.68 34.1655C13.0491 33.8775 13.3537 33.5152 13.5739 33.1021C13.7942 32.6889 13.9252 32.2342 13.9586 31.7672C14.0306 30.5002 13.5846 28.9952 14.4246 27.9532C14.6855 27.6143 15.0489 27.3688 15.4606 27.2532C16.6606 26.9362 18.0806 28.1892 18.9496 28.9272C20.06 29.7663 20.9513 30.8613 21.5478 32.1188C22.1442 33.3763 22.4282 34.7593 22.3756 36.1502C22.2559 38.1148 21.4021 39.9626 19.9835 41.327C18.565 42.6915 16.6854 43.4729 14.7176 43.5162C12.7876 43.5005 10.9334 42.7632 9.51965 41.4492C8.10594 40.1353 7.23515 38.3398 7.0786 36.4162C6.94022 34.6318 7.436 32.8558 8.4786 31.4012C8.48606 31.3914 8.4901 31.3794 8.4901 31.3672C8.4901 31.3549 8.48606 31.3429 8.4786 31.3332C8.471 31.3244 8.46077 31.3182 8.44942 31.3157C8.43807 31.3132 8.42621 31.3144 8.4156 31.3192C7.94185 31.5336 7.50349 31.8188 7.1156 32.1652C5.99938 33.6769 5.44844 35.5322 5.5586 37.4082C5.64692 38.5689 5.9642 39.7007 6.49214 40.7382C7.02009 41.7758 7.74824 42.6985 8.6346 43.4532C10.7871 45.3919 13.5927 46.4458 16.4893 46.4035C19.3859 46.3612 22.1596 45.2259 24.2546 43.2252C26.4135 41.2066 27.6937 38.4211 27.8196 35.4682C27.8444 33.3445 27.4244 31.2392 26.5865 29.2877C25.7486 27.3362 24.5114 25.5817 22.9546 24.1372C22.9216 24.1022 22.8486 24.0492 22.8546 23.9912C22.8606 23.9332 22.8996 23.9182 22.9706 23.9042C23.1915 23.8553 23.421 23.861 23.6392 23.921C23.8574 23.9809 24.0577 24.0932 24.2226 24.2482C25.9156 25.9202 27.7076 27.2022 30.2226 25.7482C30.2371 25.74 30.2487 25.7276 30.2557 25.7125C30.2627 25.6974 30.2648 25.6805 30.2616 25.6642C30.2583 25.6496 30.2507 25.6363 30.2399 25.6259C30.229 25.6156 30.2153 25.6087 30.2006 25.6062ZM16.6276 2.82315C16.9566 2.82315 16.9426 2.87315 17.0046 3.14415C17.1074 3.54046 17.0936 3.95803 16.9648 4.34666C16.836 4.7353 16.5976 5.07843 16.2784 5.33481C15.9591 5.59118 15.5726 5.74988 15.1654 5.7918C14.7581 5.83373 14.3474 5.75711 13.9826 5.57116C13.6406 5.42316 13.6776 5.38316 13.7556 5.02216C13.902 4.37784 14.2694 3.80513 14.7941 3.40344C15.3187 3.00176 15.9674 2.79645 16.6276 2.82315ZM25.2586 34.7302C25.4586 38.2032 23.9926 42.4892 20.0756 44.2022C18.2451 45.0021 16.2203 45.2479 14.2516 44.9092C14.1666 44.8942 14.0956 44.8802 14.0326 44.8712C14.0296 44.8707 14.0267 44.8696 14.0241 44.868C14.0215 44.8663 14.0193 44.8642 14.0177 44.8616C14.016 44.8591 14.0148 44.8562 14.0143 44.8532C14.0138 44.8502 14.0139 44.8471 14.0146 44.8442C14.0145 44.841 14.0151 44.838 14.0164 44.8351C14.0177 44.8323 14.0197 44.8298 14.0221 44.8279C14.0245 44.826 14.0274 44.8246 14.0304 44.824C14.0334 44.8233 14.0366 44.8234 14.0396 44.8242C14.1106 44.8242 14.1896 44.8402 14.2706 44.8482C16.1494 45.0444 18.0428 44.6538 19.6906 43.7302C21.2087 42.8364 22.428 41.5129 23.1946 39.9268C23.9611 38.3407 24.2405 36.563 23.9976 34.8182C23.5756 30.8432 21.2576 26.8952 14.9676 23.4122C10.3356 20.8442 6.9086 17.5122 7.0826 12.0812C7.11633 9.96296 7.72289 7.89341 8.83789 6.09212C9.95289 4.29082 11.5347 2.82499 13.4156 1.85015C13.5589 1.75776 13.7168 1.69015 13.8826 1.65016C14.5466 1.48316 14.0826 1.66215 13.7396 1.90215C12.1186 3.055 10.7879 4.56892 9.85242 6.32438C8.91699 8.07983 8.4025 10.0287 8.3496 12.0172C8.3386 17.7482 12.7496 20.1252 16.9856 22.8052C22.1346 26.0622 24.9786 29.8932 25.2586 34.7302ZM51.7096 23.4842H54.1906C54.8316 23.4842 55.4756 23.4842 56.1176 23.4842C56.1373 23.4851 56.1569 23.4797 56.1733 23.4687C56.1897 23.4577 56.2022 23.4417 56.2088 23.4231C56.2154 23.4045 56.2158 23.3842 56.21 23.3653C56.2042 23.3464 56.1925 23.3299 56.1766 23.3182C55.9252 23.1014 55.7236 22.8329 55.5856 22.531C55.4475 22.2292 55.3762 21.9011 55.3766 21.5692C55.3873 21.1073 55.5172 20.656 55.7536 20.2592L57.0416 17.5912C57.0535 17.5681 57.071 17.5485 57.0926 17.5342C57.1131 17.52 57.1377 17.5129 57.1626 17.5142H68.7036C68.7288 17.515 68.7535 17.5219 68.7756 17.5342C68.7952 17.549 68.8107 17.5686 68.8206 17.5912L70.0286 20.1572C70.1196 20.3364 70.1988 20.5215 70.2656 20.7112C70.4047 21.1644 70.4172 21.6471 70.3017 22.1069C70.1863 22.5668 69.9473 22.9863 69.6106 23.3202C69.596 23.334 69.5859 23.3518 69.5816 23.3715C69.5774 23.3911 69.5791 23.4115 69.5866 23.4302C69.5942 23.4462 69.6063 23.4597 69.6214 23.4691C69.6364 23.4785 69.6538 23.4834 69.6716 23.4832H76.2586C76.2784 23.4837 76.2978 23.4775 76.3138 23.4658C76.3297 23.454 76.3413 23.4372 76.3466 23.4182C76.3495 23.3987 76.3465 23.3789 76.3382 23.3611C76.3298 23.3433 76.3164 23.3284 76.2996 23.3182C75.3377 22.8474 74.5494 22.0843 74.0476 21.1382C73.9596 20.9692 73.8806 20.8002 73.7986 20.6242L64.8126 1.51715L64.1426 0.0901541C64.1343 0.0663222 64.119 0.0455325 64.0988 0.0304788C64.0785 0.0154252 64.0542 0.00680278 64.029 0.00572526C64.0038 0.00464775 63.9788 0.0111657 63.9574 0.0244364C63.9359 0.037707 63.9189 0.0571172 63.9086 0.0801538L62.2246 3.55715L53.8366 20.9102C53.7476 21.0942 53.6576 21.2752 53.5576 21.4512C53.1053 22.2296 52.4554 22.8747 51.6736 23.3212C51.6574 23.3298 51.6442 23.3434 51.636 23.3598C51.6277 23.3763 51.6248 23.3949 51.6276 23.4132C51.6309 23.4327 51.6408 23.4505 51.6558 23.4634C51.6708 23.4764 51.6898 23.4837 51.7096 23.4842V23.4842ZM57.7966 16.0302C59.5106 12.4772 61.1966 8.90515 62.9476 5.37815C62.9537 5.36576 62.963 5.35528 62.9747 5.34787C62.9863 5.34046 62.9998 5.3364 63.0136 5.33615C63.0269 5.33641 63.0399 5.34003 63.0515 5.34668C63.063 5.35332 63.0727 5.36277 63.0796 5.37415C64.7496 8.92415 66.4586 12.4602 68.0876 16.0302C68.0925 16.0406 68.095 16.0521 68.095 16.0637C68.095 16.0752 68.0925 16.0867 68.0876 16.0972C68.082 16.1087 68.0732 16.1182 68.0621 16.1247C68.0511 16.1311 68.0383 16.134 68.0256 16.1332H57.8636C57.8515 16.133 57.8395 16.1298 57.8289 16.124C57.8183 16.1181 57.8093 16.1097 57.8026 16.0995C57.796 16.0893 57.792 16.0777 57.791 16.0656C57.7899 16.0535 57.7918 16.0413 57.7966 16.0302V16.0302ZM119.597 12.6412C119.391 15.6091 118.058 18.3861 115.871 20.403C113.684 22.4198 110.808 23.5239 107.833 23.4888C104.858 23.4538 102.01 22.2823 99.8705 20.2145C97.7315 18.1467 96.4643 15.3392 96.3286 12.3672C96.3236 12.0232 96.3286 11.6782 96.3286 11.3342C96.4129 8.30293 97.6763 5.42415 99.8501 3.30994C102.024 1.19573 104.937 0.0128587 107.969 0.0128587C111.001 0.0128587 113.914 1.19573 116.088 3.30994C118.262 5.42415 119.525 8.30293 119.61 11.3342C119.605 11.7652 119.61 12.2042 119.593 12.6382L119.597 12.6412ZM116.126 11.3772C116.126 5.74615 112.47 1.18415 107.96 1.18415C103.45 1.18415 99.7986 5.74615 99.7986 11.3772C99.7986 11.6912 99.7986 12.0102 99.7986 12.3252C99.8826 17.8602 103.508 22.3142 107.957 22.3142C112.315 22.3142 115.876 18.0542 116.109 12.6892C116.13 12.2492 116.121 11.8082 116.121 11.3742L116.126 11.3772ZM144.999 0.0691541C145.004 0.087886 145.003 0.108008 144.996 0.126191C144.989 0.144375 144.976 0.159532 144.959 0.169155C144.233 0.583747 143.624 1.17506 143.188 1.88815C142.998 2.21546 142.826 2.5526 142.672 2.89815C139.605 9.26815 136.552 15.6582 133.429 21.9982L132.929 23.0532V23.0422C132.543 23.8995 132.003 24.679 131.337 25.3422C130.453 26.0489 129.346 26.4163 128.215 26.3782C128.198 26.3795 128.181 26.375 128.167 26.3654C128.153 26.3557 128.142 26.3415 128.138 26.3252C128.132 26.3084 128.133 26.2901 128.14 26.274C128.147 26.2579 128.16 26.245 128.177 26.2382C129.104 25.7858 129.912 25.1219 130.537 24.3002C131.168 23.4206 131.707 22.4783 132.145 21.4882C132.152 21.4724 132.155 21.4554 132.156 21.4382C132.155 21.4181 132.151 21.3982 132.145 21.3792L123.514 3.03015C123.346 2.64928 123.155 2.27952 122.941 1.92315C122.454 1.17358 121.774 0.568515 120.974 0.171155C120.955 0.162382 120.941 0.147712 120.932 0.129547C120.923 0.111381 120.921 0.0907955 120.926 0.071155C120.93 0.05238 120.941 0.035697 120.956 0.023744C120.971 0.011791 120.99 0.00525009 121.01 0.00515497H127.41C127.428 0.00680307 127.445 0.0132878 127.459 0.0239214C127.474 0.0345549 127.485 0.0489404 127.492 0.0655512C127.5 0.0821619 127.502 0.100378 127.5 0.118266C127.497 0.136155 127.49 0.153048 127.479 0.167154C127.241 0.401121 127.052 0.679891 126.923 0.987319C126.794 1.29475 126.727 1.62473 126.727 1.95815C126.734 2.45992 126.875 2.95064 127.135 3.38015L133.835 17.6302C133.842 17.6451 133.853 17.6577 133.867 17.6665C133.881 17.6754 133.897 17.6801 133.914 17.6802C133.93 17.6799 133.946 17.675 133.96 17.6659C133.974 17.6569 133.986 17.6442 133.993 17.6292L140.893 3.35015C141.168 2.90465 141.327 2.3971 141.355 1.87415C141.354 1.55141 141.283 1.23262 141.149 0.939342C141.014 0.646062 140.818 0.38512 140.574 0.174154C140.561 0.160651 140.553 0.143982 140.549 0.125972C140.545 0.107963 140.547 0.0893102 140.553 0.072059C140.559 0.0548078 140.57 0.0396236 140.585 0.0281748C140.599 0.0167259 140.616 0.00945301 140.635 0.00715387H144.919C144.937 0.00754721 144.954 0.0137862 144.969 0.0249494C144.983 0.0361126 144.994 0.0516093 144.999 0.0691541V0.0691541ZM37.8866 5.35415C37.9729 3.88137 38.6305 2.5004 39.7195 1.50512C40.8086 0.509853 42.243 -0.0211371 43.7176 0.0251554C46.0806 0.0251554 47.1746 1.06816 49.0586 1.43216C49.0809 1.43652 49.102 1.44577 49.1203 1.45926C49.1387 1.47275 49.1538 1.49013 49.1646 1.51015C49.1832 1.54002 49.1916 1.5751 49.1886 1.61015L48.8656 4.80515C48.8643 4.822 48.8573 4.83789 48.8456 4.85011C48.8339 4.86233 48.8184 4.87012 48.8016 4.87215C48.7839 4.87372 48.7662 4.86865 48.752 4.85794C48.7377 4.84723 48.728 4.83163 48.7246 4.81416C48.2916 2.36616 46.1386 1.00015 43.6876 0.971155C42.1136 0.955155 40.4876 1.60615 40.0876 3.26215C39.9933 3.63826 39.9797 4.03006 40.0476 4.41181C40.1155 4.79355 40.2634 5.15662 40.4816 5.47716C42.3056 8.33016 50.2586 11.6802 50.2586 17.1242C50.2586 21.4492 46.9706 23.6502 42.9586 23.4842C41.3786 23.4172 39.8306 22.6202 38.6586 22.9442C38.6279 22.9527 38.5953 22.9527 38.5646 22.9442C38.5288 22.9347 38.4974 22.9131 38.4756 22.8832C37.799 21.8107 37.4913 20.5466 37.5996 19.2832C37.6018 19.2562 37.6127 19.2308 37.6308 19.2107C37.6489 19.1907 37.6731 19.1771 37.6996 19.1722C37.7248 19.166 37.7514 19.1681 37.7754 19.1782C37.7993 19.1882 37.8194 19.2058 37.8326 19.2282C38.252 20.2269 38.9658 21.0741 39.879 21.6569C40.7921 22.2397 41.8611 22.5303 42.9436 22.4902C45.3026 22.5352 47.8296 21.5462 47.9046 19.0012C47.9886 16.2622 44.9236 14.2452 42.8296 12.6802C41.3575 11.6551 40.041 10.423 38.9206 9.02215C38.1562 7.95868 37.7902 6.66027 37.8866 5.35415ZM96.1356 0.00515497C96.1552 0.00575474 96.1741 0.012916 96.1892 0.0254968C96.2043 0.0380777 96.2148 0.0553529 96.2189 0.0745691C96.2231 0.0937853 96.2207 0.113836 96.2121 0.131523C96.2035 0.149209 96.1892 0.163513 96.1716 0.172155C95.2781 0.683087 94.5597 1.452 94.1106 2.37815L94.0976 2.39615L85.6206 19.9302L83.9366 23.4102C83.9268 23.432 83.911 23.4506 83.891 23.4637C83.8709 23.4769 83.8475 23.4839 83.8236 23.4842C83.7974 23.4848 83.7716 23.477 83.7502 23.4619C83.7287 23.4467 83.7128 23.4251 83.7046 23.4002L83.0346 21.9742L74.4796 3.77415C74.2436 3.26515 74.0126 2.71815 73.7346 2.22615C73.231 1.3363 72.4709 0.618796 71.5536 0.167154C71.5347 0.159174 71.5192 0.144767 71.5099 0.12648C71.5006 0.108192 71.498 0.0872011 71.5027 0.0672163C71.5074 0.0472314 71.519 0.0295401 71.5354 0.0172685C71.5518 0.00499695 71.5721 -0.00106604 71.5926 0.000153897H78.1756C78.1935 0.00102364 78.2108 0.00667976 78.2258 0.0165304C78.2407 0.026381 78.2527 0.0400646 78.2606 0.0561537C78.2691 0.074695 78.2712 0.0955027 78.2667 0.115377C78.2622 0.135251 78.2512 0.153092 78.2356 0.166154C77.9913 0.405826 77.7974 0.691864 77.6652 1.00749C77.533 1.32311 77.4651 1.66196 77.4656 2.00416C77.4646 2.26222 77.5034 2.5189 77.5806 2.76516C77.7964 3.33752 78.0496 3.89506 78.3386 4.43415C79.8916 7.75715 81.4386 11.0812 83.0076 14.3972C83.5976 15.6345 84.1836 16.8742 84.7656 18.1162C84.7732 18.1273 84.7833 18.1366 84.7951 18.1432C84.8069 18.1498 84.8201 18.1535 84.8336 18.1542C84.8475 18.1541 84.8611 18.1504 84.873 18.1434C84.885 18.1364 84.8948 18.1263 84.9016 18.1142C85.8776 16.1492 86.8316 14.1702 87.7806 12.1902L91.7036 4.04316C92.1118 3.39944 92.3739 2.67409 92.4716 1.91816C92.4729 1.58593 92.4021 1.25738 92.2639 0.955222C92.1258 0.653068 91.9237 0.384522 91.6716 0.168155C91.6552 0.155177 91.6439 0.136902 91.6395 0.116466C91.6351 0.0960297 91.638 0.0747049 91.6476 0.0561537C91.6558 0.0394754 91.6684 0.0254028 91.6841 0.0155119C91.6999 0.00562093 91.718 0.000302727 91.7366 0.000153897H96.1416L96.1356 0.00515497ZM43.9886 35.7202V37.9302H42.8136V36.7612H38.1996V31.2412H39.4696V35.7212H41.9306V31.2412H43.2006V35.7212L43.9886 35.7202ZM49.1076 35.7362V36.7612H44.8326V31.2412H49.0046V32.2662H46.1046V33.4662H48.6676V34.4602H46.1026V35.7382L49.1076 35.7362ZM55.2076 31.2362V36.7572H53.9256V34.4982H51.4176V36.7622H50.1406V31.2412H51.4176V33.4182H53.9256V31.2412L55.2076 31.2362ZM60.8076 32.2772H59.0366V36.7572H57.7746V32.2772H56.0156V31.2412H60.8026L60.8076 32.2772ZM65.2756 31.4772C65.6146 31.6225 65.9038 31.8637 66.1076 32.1712C66.2985 32.4927 66.3993 32.8597 66.3993 33.2337C66.3993 33.6076 66.2985 33.9746 66.1076 34.2962C65.9054 34.605 65.6157 34.8467 65.2756 34.9902C64.873 35.1593 64.4392 35.2414 64.0026 35.2312H62.8846V36.7532H61.6076V31.2412H63.9976C64.4345 31.2308 64.8685 31.314 65.2706 31.4852L65.2756 31.4772ZM64.8066 33.9422C64.9074 33.8554 64.9869 33.7466 65.0389 33.6241C65.0909 33.5017 65.1141 33.369 65.1066 33.2362C65.1147 33.1021 65.0919 32.968 65.0399 32.8442C64.9879 32.7203 64.908 32.6102 64.8066 32.5222C64.5524 32.34 64.2426 32.2523 63.9306 32.2742H62.8846V34.1912H63.9256C64.2367 34.215 64.5465 34.1298 64.8016 33.9502L64.8066 33.9422ZM70.6386 36.4812C70.1929 36.2502 69.8193 35.9012 69.5586 35.4722C69.3027 35.0241 69.1681 34.5171 69.1681 34.0012C69.1681 33.4852 69.3027 32.9782 69.5586 32.5302C69.8162 32.0991 70.1874 31.7473 70.6316 31.5132C71.068 31.2932 71.5464 31.1693 72.0348 31.1496C72.5231 31.1299 73.0099 31.215 73.4626 31.3992C73.84 31.5608 74.1738 31.8096 74.4366 32.1252L73.6166 32.8822C73.4488 32.6769 73.2368 32.5121 72.9965 32.4001C72.7562 32.2881 72.4937 32.2317 72.2286 32.2352C71.9092 32.2296 71.5939 32.3071 71.3136 32.4602C71.0497 32.6059 70.8323 32.8233 70.6866 33.0872C70.5386 33.3695 70.4613 33.6834 70.4613 34.0022C70.4613 34.3209 70.5386 34.6349 70.6866 34.9172C70.8323 35.1811 71.0497 35.3984 71.3136 35.5442C71.594 35.6971 71.9093 35.7746 72.2286 35.7692C72.4945 35.7722 72.7575 35.7149 72.998 35.6014C73.2384 35.488 73.45 35.3213 73.6166 35.1142L74.4366 35.8712C74.1746 36.1912 73.8391 36.443 73.4586 36.6052C73.0471 36.7774 72.6046 36.8632 72.1586 36.8572C71.6275 36.864 71.1031 36.7375 70.6336 36.4892L70.6386 36.4812ZM80.3116 31.2322V36.7532H79.0416V32.2732H76.5446V36.7532H75.2746V31.2412L80.3116 31.2322ZM82.7586 36.4862C82.3113 36.2511 81.9374 35.8975 81.6776 35.4642C81.4218 35.019 81.2871 34.5146 81.2871 34.0012C81.2871 33.4877 81.4218 32.9833 81.6776 32.5382C81.9374 32.1051 82.3114 31.7519 82.7586 31.5172C83.2388 31.2728 83.7699 31.1455 84.3086 31.1455C84.8473 31.1455 85.3784 31.2728 85.8586 31.5172C86.3088 31.7574 86.6853 32.1154 86.9478 32.553C87.2104 32.9906 87.349 33.4913 87.349 34.0017C87.349 34.512 87.2104 35.0127 86.9478 35.4503C86.6853 35.8879 86.3088 36.2459 85.8586 36.4862C85.3784 36.7305 84.8473 36.8578 84.3086 36.8578C83.7699 36.8578 83.2388 36.7305 82.7586 36.4862V36.4862ZM85.1916 35.5432C85.4521 35.3956 85.6664 35.1785 85.8106 34.9162C85.9582 34.6338 86.0353 34.3198 86.0353 34.0012C86.0353 33.6825 85.9582 33.3686 85.8106 33.0862C85.6664 32.8238 85.4521 32.6067 85.1916 32.4592C84.9205 32.3117 84.6167 32.2344 84.3081 32.2344C83.9995 32.2344 83.6957 32.3117 83.4246 32.4592C83.1641 32.6067 82.9498 32.8238 82.8056 33.0862C82.6579 33.3685 82.5807 33.6825 82.5807 34.0012C82.5807 34.3198 82.6579 34.6338 82.8056 34.9162C82.9498 35.1785 83.1641 35.3956 83.4246 35.5432C83.6957 35.6907 83.9994 35.768 84.3081 35.768C84.6168 35.768 84.9205 35.6907 85.1916 35.5432V35.5432ZM91.9776 31.4852C92.3166 31.6305 92.6058 31.8717 92.8096 32.1792C93.0005 32.5007 93.1013 32.8677 93.1013 33.2417C93.1013 33.6156 93.0005 33.9826 92.8096 34.3042C92.6075 34.6131 92.3178 34.8547 91.9776 34.9982C91.5747 35.1674 91.1405 35.2495 90.7036 35.2392H89.5976V36.7612H88.3196V31.2412H90.7086C91.1458 31.2307 91.5802 31.3139 91.9826 31.4852H91.9776ZM91.5086 33.9502C91.6095 33.8634 91.689 33.7546 91.741 33.6322C91.7931 33.5097 91.8162 33.377 91.8086 33.2442C91.8167 33.1101 91.7939 32.976 91.7419 32.8522C91.6899 32.7283 91.61 32.6182 91.5086 32.5302C91.2544 32.348 90.9446 32.2603 90.6326 32.2822H89.5976V34.1992H90.6386C90.9503 34.2205 91.2598 34.1324 91.5136 33.9502H91.5086ZM98.0156 32.2822H96.2586V36.7622H94.9916V32.2822H93.2336V31.2412H98.0206L98.0156 32.2822ZM102.282 35.5822H99.7236L99.2346 36.7652H97.9256L100.387 31.2442H101.649L104.118 36.7652H102.777L102.282 35.5822ZM101.882 34.6122L101.007 32.4982L100.132 34.6122H101.882ZM38.1966 40.7122H39.4666V44.3122L42.1006 40.7122H43.3006V46.2302H42.0406V42.6372L39.4066 46.2302H38.1996L38.1966 40.7122ZM50.7966 43.8712C50.9772 44.1044 51.0732 44.3922 51.0686 44.6872C51.0736 45.0103 50.9553 45.3232 50.7376 45.5622C50.4913 45.8256 50.1814 46.0212 49.8376 46.1302C49.4405 46.2659 49.0233 46.3335 48.6036 46.3302C48.2219 46.3296 47.8416 46.2819 47.4716 46.1882C47.0969 46.0936 46.7371 45.9476 46.4026 45.7542L46.7976 44.8392C47.0464 44.9895 47.3159 45.1024 47.5976 45.1742C47.8769 45.2486 48.1646 45.2869 48.4536 45.2882C48.7794 45.3015 49.1033 45.2327 49.3956 45.0882C49.507 45.0386 49.6017 44.9578 49.6682 44.8556C49.7348 44.7534 49.7703 44.6341 49.7706 44.5122C49.7782 44.4165 49.7588 44.3206 49.7146 44.2354C49.6704 44.1502 49.6032 44.0791 49.5206 44.0302C49.3062 43.9142 49.064 43.8596 48.8206 43.8722H47.4746V42.9102H48.7286C48.9402 42.9217 49.1501 42.8664 49.3286 42.7522C49.3982 42.7037 49.4545 42.6386 49.4924 42.5628C49.5303 42.487 49.5486 42.4029 49.5456 42.3182C49.5452 42.214 49.5158 42.1121 49.4607 42.0238C49.4056 41.9355 49.3269 41.8643 49.2336 41.8182C48.9877 41.6878 48.7117 41.625 48.4336 41.6362C48.1807 41.638 47.9291 41.6716 47.6846 41.7362C47.4307 41.8016 47.1865 41.9005 46.9586 42.0302L46.5716 41.0362C47.1572 40.7362 47.8066 40.5822 48.4646 40.5872C48.8694 40.5827 49.272 40.6466 49.6556 40.7762C49.9876 40.8824 50.2866 41.0725 50.5236 41.3282C50.7345 41.5583 50.85 41.86 50.8466 42.1722C50.8502 42.422 50.7757 42.6667 50.6336 42.8722C50.4871 43.081 50.2852 43.2448 50.0506 43.3452C50.3456 43.4403 50.6058 43.6205 50.7986 43.8632L50.7966 43.8712ZM57.7726 45.1922V47.3772H56.5916V46.2302H52.6916V47.3742H51.5126L51.5206 45.1892H51.7416C52.0749 45.1792 52.3083 44.9372 52.4416 44.4632C52.6038 43.7995 52.6887 43.1193 52.6946 42.4362L52.7576 40.7092H57.0006V45.1892L57.7726 45.1922ZM53.6586 44.2032C53.6117 44.5572 53.4788 44.8943 53.2716 45.1852H55.7406V41.7462H53.8466L53.8226 42.5462C53.8076 43.1017 53.7528 43.6555 53.6586 44.2032V44.2032ZM59.7196 45.9502C59.2721 45.716 58.8977 45.3631 58.6376 44.9302C58.3818 44.485 58.2471 43.9806 58.2471 43.4672C58.2471 42.9537 58.3818 42.4493 58.6376 42.0042C58.8972 41.5709 59.2713 41.2176 59.7186 40.9832C60.1987 40.7386 60.7298 40.6111 61.2686 40.6111C61.8074 40.6111 62.3385 40.7386 62.8186 40.9832C63.2688 41.2234 63.6453 41.5814 63.9078 42.019C64.1704 42.4566 64.309 42.9573 64.309 43.4677C64.309 43.978 64.1704 44.4787 63.9078 44.9163C63.6453 45.3539 63.2688 45.7119 62.8186 45.9522C62.3385 46.1967 61.8074 46.3242 61.2686 46.3242C60.7298 46.3242 60.1987 46.1967 59.7186 45.9522L59.7196 45.9502ZM62.1526 45.0082C62.4131 44.8606 62.6274 44.6435 62.7716 44.3812C62.9192 44.0988 62.9963 43.7848 62.9963 43.4662C62.9963 43.1475 62.9192 42.8336 62.7716 42.5512C62.6275 42.2887 62.4132 42.0716 62.1526 41.9242C61.8816 41.7764 61.5778 41.699 61.2691 41.699C60.9604 41.699 60.6566 41.7764 60.3856 41.9242C60.125 42.0716 59.9107 42.2887 59.7666 42.5512C59.619 42.8336 59.5419 43.1475 59.5419 43.4662C59.5419 43.7848 59.619 44.0988 59.7666 44.3812C59.9107 44.6436 60.1251 44.8607 60.3856 45.0082C60.6567 45.1557 60.9604 45.233 61.2691 45.233C61.5778 45.233 61.8815 45.1557 62.1526 45.0082V45.0082ZM68.9396 40.9502C69.2832 41.094 69.5747 41.3395 69.7747 41.6537C69.9747 41.968 70.0738 42.3359 70.0586 42.7082C70.0669 43.0827 69.9654 43.4516 69.7666 43.7692C69.5642 44.0778 69.2746 44.3194 68.9346 44.4632C68.5315 44.6318 68.0974 44.7136 67.6606 44.7032H66.5526V46.2302H65.2746V40.7052H67.6646C68.1018 40.6948 68.5362 40.778 68.9386 40.9492L68.9396 40.9502ZM68.4706 43.4152C68.5715 43.3285 68.6511 43.2197 68.7031 43.0972C68.7552 42.9748 68.7782 42.842 68.7706 42.7092C68.7787 42.5751 68.7559 42.441 68.7039 42.3172C68.6519 42.1933 68.572 42.0832 68.4706 41.9952C68.2167 41.8132 67.9072 41.7255 67.5956 41.7472H66.5526V43.6642H67.5936C67.9055 43.6853 68.2149 43.5969 68.4686 43.4142L68.4706 43.4152ZM72.0706 45.9512C71.623 45.7166 71.2486 45.3634 70.9886 44.9302C70.7328 44.485 70.5981 43.9806 70.5981 43.4672C70.5981 42.9537 70.7328 42.4493 70.9886 42.0042C71.2483 41.571 71.6223 41.2178 72.0696 40.9832C72.5497 40.7387 73.0808 40.6113 73.6196 40.6113C74.1584 40.6113 74.6895 40.7387 75.1696 40.9832C75.6198 41.2234 75.9963 41.5814 76.2588 42.019C76.5214 42.4566 76.66 42.9573 76.66 43.4677C76.66 43.978 76.5214 44.4787 76.2588 44.9163C75.9963 45.3539 75.6198 45.7119 75.1696 45.9522C74.6895 46.1966 74.1584 46.3241 73.6196 46.3241C73.0808 46.3241 72.5497 46.1966 72.0696 45.9522L72.0706 45.9512ZM74.5036 45.0092C74.7641 44.8616 74.9784 44.6445 75.1226 44.3822C75.2703 44.0998 75.3475 43.7858 75.3475 43.4672C75.3475 43.1485 75.2703 42.8345 75.1226 42.5522C74.9784 42.2898 74.7641 42.0727 74.5036 41.9252C74.2325 41.7775 73.9288 41.7001 73.6201 41.7001C73.3114 41.7001 73.0077 41.7775 72.7366 41.9252C72.476 42.0726 72.2617 42.2897 72.1176 42.5522C71.97 42.8346 71.8929 43.1485 71.8929 43.4672C71.8929 43.7858 71.97 44.0998 72.1176 44.3822C72.2617 44.6446 72.4761 44.8617 72.7366 45.0092C73.0077 45.1566 73.3115 45.2339 73.6201 45.2339C73.9287 45.2339 74.2325 45.1566 74.5036 45.0092ZM82.2246 43.8382C82.4076 44.0776 82.5023 44.3729 82.4926 44.6742C82.5019 44.896 82.4559 45.1166 82.3589 45.3163C82.2618 45.5159 82.1167 45.6884 81.9366 45.8182C81.4638 46.1198 80.9073 46.2633 80.3476 46.2282H77.6256V40.7052H80.1966C80.7226 40.6746 81.2455 40.804 81.6966 41.0762C81.8691 41.1916 82.009 41.3494 82.1029 41.5345C82.1967 41.7197 82.2414 41.9258 82.2326 42.1332C82.2378 42.3889 82.1664 42.6403 82.0276 42.8552C81.8843 43.0687 81.6855 43.2391 81.4526 43.3482C81.7543 43.4263 82.0239 43.5969 82.2236 43.8362L82.2246 43.8382ZM78.8966 42.9942H80.0876C80.3109 43.01 80.5331 42.9505 80.7186 42.8252C80.7868 42.7609 80.8411 42.6834 80.8782 42.5975C80.9153 42.5115 80.9345 42.4188 80.9345 42.3252C80.9345 42.2315 80.9153 42.1388 80.8782 42.0529C80.8411 41.9669 80.7868 41.8894 80.7186 41.8252C80.5352 41.6982 80.3142 41.6372 80.0916 41.6522H78.8946L78.8966 42.9942ZM81.1966 44.5712C81.1966 44.1138 80.8966 43.8852 80.2966 43.8852H78.8966V45.2852H80.2966C80.8979 45.2812 81.1983 45.0425 81.1976 44.5692L81.1966 44.5712ZM87.7236 42.9712C87.9092 43.1375 88.0543 43.3441 88.1479 43.5751C88.2415 43.8062 88.2811 44.0555 88.2636 44.3042C88.2804 44.5729 88.2351 44.8419 88.131 45.0903C88.0269 45.3387 87.867 45.5597 87.6636 45.7362C87.1801 46.0921 86.5868 46.2666 85.9876 46.2292H83.5006V40.7052H84.7706V42.5192H86.1706C86.7253 42.4815 87.2755 42.6405 87.7246 42.9682L87.7236 42.9712ZM86.6986 45.0302C86.7948 44.9399 86.8699 44.8293 86.9183 44.7066C86.9667 44.5838 86.9873 44.4518 86.9786 44.3202C86.9786 43.7468 86.6263 43.4602 85.9216 43.4602H84.7706V45.2742H85.9226C86.2024 45.2908 86.4786 45.204 86.6986 45.0302ZM93.2796 40.7002V46.2302H92.0186V44.7582H90.8516L89.8736 46.2302H88.5246L89.6766 44.5662C89.325 44.4314 89.0243 44.1902 88.8166 43.8762C88.61 43.5443 88.5057 43.1589 88.5166 42.7682C88.5063 42.3811 88.6077 41.9992 88.8086 41.6682C89.0093 41.3557 89.2971 41.1088 89.6366 40.9582C90.0342 40.7846 90.4649 40.6999 90.8986 40.7102L93.2796 40.7002ZM90.0986 41.9982C89.9985 42.0941 89.9207 42.211 89.8709 42.3405C89.8212 42.47 89.8006 42.6088 89.8106 42.7472C89.802 42.8831 89.8221 43.0194 89.8697 43.1471C89.9172 43.2747 89.9911 43.391 90.0866 43.4882C90.3135 43.6764 90.6045 43.7696 90.8986 43.7482H92.0186V41.7482H90.9296C90.6314 41.7273 90.3358 41.8162 90.0986 41.9982Z" fill="#BC945B"/>
</svg>
