<svg width="142" height="46" viewBox="0 0 142 46" fill="none" xmlns="http://www.w3.org/2000/svg">
<path d="M29.5709 24.8962C25.7853 24.5067 26.9205 20.715 23.8533 19.0569C22.6555 18.411 21.0743 18.3498 18.8466 19.5456C18.6795 19.6324 18.6377 19.6887 18.5576 19.6804C18.4774 19.6721 18.4406 19.6018 18.2518 19.4323C17.526 18.7707 16.8385 18.1356 16.2146 17.517C16.131 17.4343 16.131 17.4095 16.131 17.3847C16.131 17.3599 16.1419 17.3161 16.2304 17.283C18.7664 16.3228 21.1328 12.6519 23.1851 14.5961C23.1971 14.6084 23.2132 14.6159 23.2304 14.6173C23.2476 14.6187 23.2648 14.6138 23.2786 14.6035C23.2913 14.5943 23.3006 14.5812 23.3051 14.5663C23.3096 14.5514 23.3091 14.5355 23.3037 14.5208C22.4016 12.1449 21.1745 11.6165 19.879 11.7761C18.1174 11.9886 16.7149 13.7054 14.8672 13.3192C13.1599 12.9595 13.0296 10.7465 13.3345 9.34972C13.3412 9.32465 13.3541 9.30163 13.3721 9.28273C13.3912 9.26513 13.4149 9.25311 13.4406 9.248C15.7551 8.80474 17.916 8.13653 19.032 5.08C19.8823 2.75865 20.0828 1.93084 19.5156 1.2246C19.3809 1.05645 19.2083 0.921829 19.0116 0.831508C18.8149 0.741187 18.5997 0.697669 18.383 0.704427C17.4675 0.7123 16.5531 0.770277 15.6441 0.878093C14.405 0.94529 13.1721 1.0981 11.9546 1.33542C10.9962 1.62709 10.1496 2.19943 9.52637 2.97698C6.28377 6.39821 5.5579 9.45723 5.37497 13.3259C5.37397 13.3379 5.36972 13.3495 5.36267 13.3594C5.35562 13.3693 5.34602 13.3771 5.33488 13.3821C5.32241 13.387 5.30865 13.3876 5.29579 13.3838C5.28292 13.3801 5.27169 13.3722 5.26388 13.3614C4.38849 12.2409 3.61334 10.2842 0.0625142 10.8284C0.0462808 10.8304 0.0312618 10.838 0.0199984 10.8497C0.00873488 10.8615 0.00191852 10.8767 0.000702583 10.8929C-0.00164612 10.9092 0.00193646 10.9258 0.0108107 10.9397C0.019685 10.9537 0.0332732 10.964 0.0491495 10.969C4.54386 12.369 1.28789 17.1763 6.02566 17.254C6.05525 17.2555 6.08398 17.2643 6.10919 17.2797C6.13724 17.2979 6.15817 17.325 6.1685 17.3566C7.18831 19.7755 8.90163 21.8455 11.0967 23.3109C10.5723 23.7479 10.1845 24.3238 9.97891 24.9712C9.77327 25.6186 9.75827 26.3106 9.93567 26.9661C10.2063 28.1413 10.7551 29.3694 11.0633 30.4477C11.2266 31.0494 11.194 31.6868 10.9703 32.2691C10.7465 32.8514 10.343 33.3491 9.81705 33.6912C9.80416 33.6985 9.79383 33.7096 9.78742 33.7229C9.781 33.7361 9.77881 33.7511 9.78114 33.7656C9.78377 33.7812 9.79132 33.7957 9.80272 33.8068C9.81412 33.8179 9.82879 33.8252 9.84462 33.8276C10.2956 33.9056 10.7581 33.889 11.2022 33.7791C11.6463 33.6692 12.0622 33.4683 12.4231 33.1894C12.784 32.9105 13.0818 32.5598 13.2973 32.1599C13.5129 31.7601 13.6413 31.3199 13.6744 30.8678C13.7454 29.6389 13.3086 28.1801 14.1313 27.1704C14.3864 26.8405 14.7424 26.6011 15.1462 26.4881C16.3248 26.1813 17.7114 27.3978 18.5634 28.1107C19.6508 28.9243 20.5237 29.9858 21.1078 31.2051C21.692 32.4243 21.9702 33.7651 21.9188 35.1136C21.8014 37.0197 20.9642 38.8125 19.5736 40.1358C18.1829 41.4592 16.3404 42.2164 14.412 42.2571C9.84629 42.1851 6.94616 38.3463 6.93112 35.3724C6.79634 33.6423 7.28264 31.9206 8.30434 30.5106C8.31166 30.5011 8.31562 30.4895 8.31562 30.4775C8.31562 30.4656 8.31166 30.4539 8.30434 30.4444C8.29693 30.4361 8.28702 30.4303 8.27605 30.4279C8.26508 30.4255 8.25362 30.4267 8.24336 30.4312C7.77886 30.639 7.34904 30.9156 6.96871 31.2516C5.87317 32.7176 5.33193 34.5178 5.43929 36.3383C5.52591 37.4638 5.83673 38.5611 6.35384 39.567C6.87096 40.5729 7.58412 41.4675 8.45219 42.1992C10.5602 44.0791 13.3079 45.1009 16.1447 45.06C18.9815 45.019 21.6979 43.9183 23.7497 41.9784C25.864 40.0213 27.1177 37.3208 27.2412 34.4578C27.266 32.399 26.8551 30.3578 26.0351 28.4657C25.2151 26.5735 24.0041 24.8722 22.4801 23.4713C22.4483 23.4374 22.3765 23.3886 22.3865 23.3299C22.3966 23.2712 22.4308 23.2588 22.5001 23.2472C22.7163 23.1994 22.9409 23.2046 23.1546 23.2622C23.3683 23.3199 23.5645 23.4283 23.7263 23.578C25.3836 25.1997 27.1393 26.4418 29.6068 25.0335C29.6213 25.0255 29.6328 25.0132 29.6397 24.9984C29.6466 24.9835 29.6485 24.9668 29.6452 24.9508C29.6409 24.9347 29.6312 24.9205 29.6177 24.9106C29.6042 24.9007 29.5877 24.8956 29.5709 24.8962V24.8962ZM16.2789 2.80497C16.6013 2.80497 16.5871 2.85376 16.6481 3.11674C16.7487 3.50087 16.7351 3.9056 16.609 4.28228C16.4829 4.65896 16.2495 4.99155 15.937 5.24006C15.6245 5.48857 15.2462 5.64243 14.8474 5.68313C14.4487 5.72384 14.0466 5.64966 13.6895 5.46951C13.3554 5.32644 13.3904 5.28757 13.4673 4.93776C13.6104 4.31304 13.97 3.75768 14.4836 3.36807C14.9972 2.97847 15.6324 2.77924 16.2789 2.80497ZM24.7304 33.7383C24.9258 37.1058 23.4908 41.2639 19.6543 42.922C17.8615 43.6977 15.8783 43.936 13.9501 43.6075C13.8665 43.5926 13.7972 43.5794 13.7354 43.5711C13.7325 43.5707 13.7298 43.5696 13.7273 43.568C13.7249 43.5665 13.7228 43.5644 13.7211 43.562C13.7195 43.5596 13.7184 43.5569 13.7178 43.5541C13.7172 43.5513 13.7173 43.5483 13.7179 43.5455C13.7178 43.5425 13.7184 43.5395 13.7197 43.5368C13.7209 43.5341 13.7228 43.5317 13.7251 43.5298C13.7275 43.5279 13.7302 43.5265 13.7331 43.5258C13.7361 43.5251 13.7391 43.525 13.7421 43.5257C13.8114 43.5306 13.8891 43.5414 13.9685 43.5488C15.8088 43.7412 17.6642 43.3641 19.2792 42.4696C20.7659 41.603 21.9599 40.3197 22.7105 38.7818C23.4611 37.2438 23.7347 35.5202 23.4966 33.8284C23.079 29.9739 20.8128 26.1466 14.6534 22.7692C10.1178 20.28 6.76072 17.0473 6.93112 11.7835C6.96349 9.7291 7.55719 7.72168 8.64917 5.97442C9.74114 4.22716 11.2906 2.80527 13.1332 1.85972C13.2736 1.77092 13.428 1.70607 13.5901 1.66786C14.2408 1.50247 13.7847 1.67944 13.4497 1.91596C11.863 3.03353 10.5603 4.50093 9.6444 6.20234C8.72854 7.90374 8.22461 9.7926 8.17236 11.7199C8.16151 17.2772 12.4833 19.582 16.6297 22.1796C21.6724 25.3378 24.4572 29.0526 24.7304 33.7383ZM50.6361 22.8362H53.066C53.6941 22.8362 54.3239 22.8362 54.9529 22.8362C54.9723 22.8371 54.9914 22.8318 55.0075 22.8211C55.0236 22.8104 55.0358 22.7949 55.0423 22.7768C55.0487 22.7587 55.0491 22.739 55.0434 22.7206C55.0377 22.7023 55.0262 22.6863 55.0105 22.6749C54.7635 22.4651 54.5653 22.2049 54.4295 21.9121C54.2937 21.6194 54.2235 21.301 54.2237 20.9788C54.2342 20.5309 54.3614 20.0934 54.5929 19.7085L55.8542 17.1217C55.866 17.0996 55.8832 17.0808 55.9043 17.0671C55.9243 17.0532 55.9484 17.0462 55.9728 17.0473H67.2776C67.3026 17.0482 67.3269 17.055 67.3486 17.0671C67.3678 17.0814 67.383 17.1001 67.3929 17.1217L68.5757 19.6109C68.6649 19.7849 68.7425 19.9645 68.8079 20.1485C68.9444 20.5879 68.9568 21.056 68.8437 21.502C68.7306 21.9479 68.4964 22.3547 68.1664 22.6782C68.152 22.6915 68.142 22.7089 68.1379 22.7279C68.1337 22.747 68.1355 22.7669 68.143 22.7849C68.1505 22.8005 68.1624 22.8136 68.1772 22.8227C68.192 22.8317 68.2091 22.8364 68.2265 22.8362H74.6733C74.6924 22.8367 74.7111 22.8308 74.7263 22.8194C74.7415 22.8079 74.7523 22.7917 74.7568 22.7733C74.76 22.7545 74.7571 22.7352 74.7488 22.718C74.7404 22.7009 74.7269 22.6867 74.7101 22.6774C73.7681 22.2208 72.9962 21.4809 72.5049 20.5636C72.4214 20.3982 72.3378 20.2328 72.261 20.0674L63.4637 1.54299L62.8071 0.159445C62.7992 0.136183 62.7844 0.115836 62.7646 0.101081C62.7448 0.0863266 62.7209 0.0778544 62.6962 0.0767805C62.6714 0.0757066 62.6469 0.0820819 62.6258 0.0950651C62.6048 0.108048 62.5882 0.127032 62.5783 0.14952L60.9378 3.51783L52.7185 20.3428C52.635 20.5214 52.5431 20.6968 52.4445 20.8671C52.0015 21.6217 51.365 22.2471 50.5994 22.6799C50.583 22.6879 50.5698 22.7009 50.5616 22.717C50.5535 22.7332 50.5509 22.7515 50.5542 22.7692C50.5579 22.788 50.5681 22.805 50.583 22.8172C50.598 22.8294 50.6167 22.8361 50.6361 22.8362V22.8362ZM56.5942 15.6083C58.2732 12.1631 59.9195 8.70054 61.6386 5.28013C61.6445 5.2682 61.6537 5.25811 61.665 5.25097C61.6764 5.24382 61.6895 5.23989 61.7029 5.23961C61.7159 5.23998 61.7286 5.24358 61.7398 5.25008C61.7511 5.25659 61.7605 5.26578 61.7672 5.27682C63.4035 8.72121 65.0733 12.1499 66.672 15.6141C66.6769 15.6243 66.6794 15.6355 66.6794 15.6468C66.6794 15.6581 66.6769 15.6692 66.672 15.6795C66.6667 15.6908 66.658 15.7002 66.6471 15.7066C66.6362 15.7129 66.6237 15.7159 66.6111 15.715H56.6627C56.6504 15.7153 56.6382 15.7124 56.6273 15.7066C56.6164 15.7009 56.6072 15.6924 56.6006 15.6821C56.594 15.6718 56.5901 15.66 56.5895 15.6478C56.5888 15.6356 56.5913 15.6234 56.5968 15.6125L56.5942 15.6083ZM117.112 12.3219C116.91 15.1996 115.605 17.8919 113.463 19.8473C111.321 21.8027 108.505 22.873 105.591 22.839C102.678 22.805 99.8879 21.6691 97.7932 19.6642C95.6984 17.6593 94.4574 14.9372 94.3244 12.0556C94.3194 11.7248 94.3244 11.3882 94.3244 11.0541C94.3869 8.10126 95.6156 5.29021 97.7471 3.22376C99.8785 1.15731 102.743 0 105.726 0C108.709 0 111.574 1.15731 113.705 3.22376C115.837 5.29021 117.065 8.10126 117.128 11.0541C117.127 11.4751 117.132 11.9018 117.114 12.3219H117.112ZM113.712 11.0963C113.712 5.63821 110.131 1.21385 105.716 1.21385C101.301 1.21385 97.724 5.63739 97.724 11.0963C97.724 11.4006 97.724 11.7099 97.724 12.0151C97.8076 17.3822 101.356 21.7007 105.714 21.7007C109.981 21.7007 113.468 17.5708 113.697 12.3682C113.723 11.9448 113.715 11.5181 113.715 11.093L113.712 11.0963ZM141.995 0.135461C142.002 0.154037 142.002 0.174317 141.994 0.192657C141.987 0.210998 141.974 0.226197 141.956 0.235526C141.245 0.637572 140.648 1.21108 140.221 1.90273C140.037 2.22039 139.869 2.54751 139.72 2.8827C136.713 9.05862 133.727 15.2544 130.669 21.403L130.171 22.4227V22.4119C129.793 23.2442 129.265 24.0009 128.612 24.6448C127.747 25.33 126.663 25.6864 125.555 25.6496C125.538 25.651 125.522 25.6467 125.508 25.6374C125.494 25.628 125.484 25.6142 125.479 25.5983C125.474 25.5823 125.475 25.565 125.482 25.5497C125.49 25.5345 125.502 25.5224 125.518 25.5156C126.426 25.077 127.218 24.4335 127.829 23.6367C128.447 22.7831 128.975 21.8686 129.404 20.9076C129.411 20.8923 129.415 20.8757 129.415 20.8589C129.414 20.8394 129.411 20.8202 129.404 20.8018L120.954 3.00923C120.791 2.63936 120.604 2.28026 120.394 1.93415C119.917 1.20732 119.251 0.620683 118.467 0.235526C118.448 0.227611 118.432 0.213009 118.424 0.194534C118.415 0.176059 118.413 0.155017 118.419 0.135461C118.424 0.116959 118.434 0.100526 118.45 0.0889277C118.465 0.0773297 118.484 0.0712754 118.503 0.0717835H124.767C124.786 0.0715171 124.804 0.0767464 124.82 0.0868014C124.835 0.0968564 124.848 0.11128 124.855 0.128234C124.862 0.145187 124.864 0.163899 124.861 0.181979C124.857 0.200058 124.848 0.216686 124.835 0.229737C124.602 0.456591 124.417 0.726894 124.291 1.025C124.165 1.3231 124.099 1.64308 124.098 1.9664C124.106 2.45283 124.244 2.92856 124.498 3.34499L131.055 17.1614C131.061 17.1762 131.072 17.1887 131.086 17.1973C131.1 17.206 131.116 17.2105 131.132 17.2102C131.149 17.2104 131.165 17.2058 131.179 17.197C131.193 17.1882 131.203 17.1755 131.21 17.1606L137.976 3.31604C138.246 2.88424 138.401 2.39228 138.429 1.88536C138.428 1.57145 138.36 1.26125 138.228 0.975856C138.096 0.690457 137.903 0.436548 137.664 0.231392C137.649 0.219174 137.638 0.20272 137.633 0.184259C137.628 0.165799 137.628 0.146222 137.635 0.128177C137.641 0.110132 137.653 0.0944907 137.669 0.0833691C137.685 0.0722475 137.703 0.0661818 137.723 0.0659946H141.918C141.937 0.0672575 141.955 0.0748162 141.969 0.0874339C141.983 0.100052 141.992 0.116982 141.995 0.135461V0.135461ZM37.0985 5.25946C37.1835 3.83126 37.8282 2.4923 38.8953 1.52758C39.9624 0.562853 41.3676 0.0485419 42.8119 0.0941124C45.1265 0.0941124 46.1974 1.10551 48.0425 1.45781C48.0644 1.46214 48.085 1.47121 48.1029 1.48437C48.1208 1.49752 48.1356 1.51443 48.1461 1.53389C48.1645 1.5633 48.1727 1.59785 48.1695 1.6323L47.8504 4.72522C47.8492 4.7416 47.8423 4.75705 47.8309 4.76896C47.8194 4.78087 47.8042 4.7885 47.7878 4.79056C47.7703 4.79231 47.7528 4.7875 47.7387 4.77709C47.7246 4.76668 47.715 4.75141 47.7117 4.73432C47.2874 2.36088 45.18 1.03605 42.7785 1.00793C41.2366 0.992217 39.642 1.62321 39.2502 3.22921C39.1576 3.59426 39.144 3.97461 39.2106 4.34521C39.2771 4.71582 39.4221 5.06827 39.6361 5.37937C41.4253 8.14067 49.2161 11.3932 49.2161 16.671C49.2161 20.8638 45.9952 22.9983 42.0635 22.837C40.5165 22.7725 38.9997 21.9993 37.8561 22.3135C37.8261 22.3218 37.7943 22.3218 37.7643 22.3135C37.7305 22.3035 37.7011 22.2825 37.6807 22.254C37.0169 21.2131 36.7153 19.9857 36.822 18.7591C36.8238 18.7334 36.834 18.7089 36.851 18.6894C36.868 18.6698 36.891 18.6563 36.9164 18.6508C36.9412 18.6448 36.9672 18.6469 36.9907 18.6568C37.0142 18.6666 37.0338 18.6836 37.0467 18.7054C37.4575 19.6739 38.1566 20.4955 39.0509 21.0607C39.9453 21.6258 40.9924 21.9076 42.0526 21.8686C44.3622 21.9116 46.8372 20.9531 46.9115 18.4854C46.9951 15.83 43.993 13.8741 41.9407 12.3566C40.4991 11.3627 39.2098 10.1681 38.1126 8.8097C37.365 7.78041 37.0061 6.52393 37.0985 5.25946V5.25946ZM94.1431 0.0734381C94.1541 0.0711032 94.1654 0.0709298 94.1765 0.0729286C94.1875 0.0749274 94.198 0.0790586 94.2075 0.0850868C94.2169 0.091115 94.225 0.0989226 94.2314 0.108062C94.2378 0.117202 94.2423 0.127495 94.2446 0.138355C94.247 0.149216 94.2471 0.16043 94.2451 0.171357C94.2431 0.182284 94.2389 0.192711 94.2328 0.202041C94.2268 0.211371 94.2189 0.219423 94.2096 0.225736C94.2004 0.232049 94.19 0.236499 94.179 0.238834C93.304 0.734411 92.6006 1.48011 92.161 2.37824L92.1484 2.39644L83.8457 19.3992L82.1968 22.7733C82.1872 22.7944 82.1717 22.8123 82.1522 22.8249C82.1326 22.8375 82.1098 22.8443 82.0865 22.8444C82.0607 22.8449 82.0355 22.8371 82.0146 22.8222C81.9937 22.8073 81.9782 22.7861 81.9704 22.7617L81.3139 21.379L72.9351 3.73284C72.7037 3.23665 72.4782 2.70904 72.205 2.23187C71.7116 1.36896 70.967 0.673275 70.0683 0.235526C70.0462 0.230482 70.027 0.216931 70.0149 0.197855C70.0028 0.178779 69.9989 0.155741 70.004 0.133808C70.0091 0.111875 70.0228 0.092844 70.0421 0.0809021C70.0613 0.0689602 70.0846 0.0650858 70.1068 0.0701304H76.5577C76.5754 0.0706563 76.5926 0.0760402 76.6073 0.0856799C76.6221 0.0953196 76.6338 0.108835 76.6413 0.124711C76.6495 0.14275 76.6515 0.16297 76.647 0.182251C76.6424 0.201532 76.6316 0.218801 76.6162 0.231392C76.3774 0.463996 76.188 0.741433 76.0589 1.04745C75.9298 1.35347 75.8637 1.68191 75.8644 2.01354C75.8635 2.26371 75.9016 2.51251 75.9772 2.75121C76.1886 3.30624 76.4366 3.84688 76.7198 4.36962C78.2408 7.59486 79.7535 10.8143 81.2922 14.0296C81.8702 15.2293 82.444 16.4315 83.0137 17.6361C83.0209 17.647 83.0307 17.6561 83.0422 17.6626C83.0536 17.669 83.0665 17.6727 83.0797 17.6733C83.0932 17.6731 83.1063 17.6694 83.1179 17.6626C83.1295 17.6558 83.1391 17.6461 83.1457 17.6344C84.1012 15.7324 85.0351 13.8105 85.9656 11.8902L89.808 3.99169C90.2075 3.36762 90.4641 2.66447 90.5597 1.93167C90.5607 1.60925 90.4908 1.29048 90.3549 0.997459C90.2191 0.704437 90.0205 0.444171 89.7729 0.2347C89.7566 0.222138 89.7453 0.204362 89.7409 0.184436C89.7365 0.16451 89.7392 0.143681 89.7487 0.125538C89.7562 0.109775 89.768 0.0963613 89.7828 0.086743C89.7975 0.0771248 89.8146 0.0716669 89.8322 0.070957H94.1465L94.1431 0.0734381ZM43.0742 34.7026V36.8436H41.9232V35.7115H37.4051V30.3617H38.648V34.7051H41.0578V30.3617H42.3024V34.7051L43.0742 34.7026ZM48.086 34.7175V35.7098H43.8978V30.3617H47.9907V31.3541H45.1507V32.5119H47.6566V33.4753H45.1441V34.7158L48.086 34.7175ZM54.0575 30.3617V35.7148H52.8045V33.5167H50.3496V35.7115H49.0967V30.3617H50.3496V32.4722H52.8062V30.3617H54.0575ZM59.5412 31.3706H57.8104V35.714H56.575V31.3682H54.8527V30.3617H59.5412V31.3706ZM63.9164 30.5982C64.2485 30.739 64.5319 30.9726 64.7317 31.2706C64.9187 31.5824 65.0174 31.9383 65.0174 32.301C65.0174 32.6637 64.9187 33.0196 64.7317 33.3314C64.5335 33.6311 64.2497 33.8654 63.9164 34.0046C63.5219 34.1683 63.097 34.2478 62.6693 34.2378H61.5834V35.714H60.3305V30.3617H62.6693C63.0971 30.351 63.5223 30.4308 63.9164 30.5958V30.5982ZM63.457 32.9882C63.5557 32.904 63.6334 32.7985 63.6843 32.6797C63.7351 32.561 63.7577 32.4323 63.7502 32.3035C63.7582 32.1736 63.736 32.0436 63.6851 31.9236C63.6343 31.8035 63.5562 31.6967 63.457 31.6113C63.2081 31.4347 62.9047 31.3496 62.5992 31.3706H61.5801V33.2289H62.6C62.9055 33.2491 63.2086 33.1631 63.457 32.9858V32.9882ZM69.1687 35.4502C68.7346 35.2218 68.3722 34.8796 68.1213 34.4611C67.8707 34.0267 67.7389 33.5352 67.7389 33.035C67.7389 32.5347 67.8707 32.0432 68.1213 31.6088C68.3734 31.1907 68.737 30.8494 69.1721 30.6222C69.5994 30.4089 70.0679 30.2887 70.5461 30.2696C71.0243 30.2505 71.5011 30.3329 71.9444 30.5114C72.314 30.6682 72.6409 30.9093 72.8983 31.2152L72.0948 31.9495C71.9303 31.7505 71.7226 31.5908 71.4872 31.4823C71.2517 31.3737 70.9946 31.3192 70.7349 31.3227C70.4224 31.3171 70.1139 31.3921 69.8395 31.5402C69.581 31.6814 69.3682 31.8921 69.2255 32.148C69.0807 32.4217 69.0051 32.726 69.0051 33.035C69.0051 33.3439 69.0807 33.6482 69.2255 33.9219C69.3681 34.178 69.5809 34.3891 69.8395 34.5306C70.1138 34.6788 70.4224 34.754 70.7349 34.7489C70.9954 34.7519 71.2531 34.6964 71.4887 34.5863C71.7243 34.4763 71.9315 34.3147 72.0948 34.1138L72.8983 34.8481C72.6417 35.1584 72.3129 35.4024 71.9402 35.5593C71.5371 35.7278 71.1032 35.8123 70.6656 35.8074C70.1438 35.8139 69.6287 35.6902 69.1679 35.4477L69.1687 35.4502ZM78.6418 30.3617V35.7148H77.398V31.3682H74.9573V35.7115H73.7177V30.3617H78.6418ZM81.0474 35.4469C80.6093 35.2185 80.2432 34.8752 79.9891 34.4545C79.7387 34.0229 79.6069 33.5339 79.6069 33.0362C79.6069 32.5385 79.7387 32.0495 79.9891 31.6179C80.2431 31.1971 80.6093 30.8538 81.0474 30.6255C81.517 30.3894 82.0363 30.2663 82.5631 30.2663C83.0898 30.2663 83.6091 30.3894 84.0787 30.6255C84.52 30.8581 84.8892 31.2052 85.1466 31.6295C85.404 32.0539 85.5399 32.5396 85.5399 33.0345C85.5399 33.5295 85.404 34.0152 85.1466 34.4396C84.8892 34.8639 84.52 35.211 84.0787 35.4435C83.6091 35.6797 83.0898 35.8028 82.5631 35.8028C82.0363 35.8028 81.517 35.6797 81.0474 35.4435V35.4469ZM83.4297 34.533C83.6849 34.3898 83.8949 34.179 84.0361 33.9244C84.1806 33.6506 84.2561 33.3463 84.2561 33.0374C84.2561 32.7285 84.1806 32.4242 84.0361 32.1505C83.8948 31.8962 83.6848 31.6857 83.4297 31.5427C83.1642 31.3997 82.8669 31.3248 82.5647 31.3248C82.2626 31.3248 81.9652 31.3997 81.6998 31.5427C81.4446 31.6857 81.2346 31.8961 81.0934 32.1505C80.9487 32.4242 80.8732 32.7285 80.8732 33.0374C80.8732 33.3463 80.9487 33.6507 81.0934 33.9244C81.2345 34.1791 81.4445 34.3898 81.6998 34.533C81.9652 34.676 82.2626 34.7509 82.5647 34.7509C82.8669 34.7509 83.1642 34.676 83.4297 34.533V34.533ZM90.0753 30.5991C90.4074 30.7397 90.6907 30.9734 90.8905 31.2714C91.0776 31.5832 91.1763 31.9392 91.1763 32.3018C91.1763 32.6645 91.0776 33.0204 90.8905 33.3323C90.6925 33.632 90.4086 33.8664 90.0753 34.0054C89.6808 34.1692 89.2558 34.2486 88.8282 34.2386H87.7423V35.7148H86.4893V30.3617H88.8282C89.2562 30.3509 89.6817 30.4307 90.0761 30.5958L90.0753 30.5991ZM89.6158 32.9891C89.7145 32.9049 89.7923 32.7993 89.8431 32.6806C89.894 32.5618 89.9165 32.4331 89.909 32.3043C89.9171 32.1744 89.8948 32.0444 89.844 31.9244C89.7931 31.8044 89.7151 31.6975 89.6158 31.6121C89.3669 31.4354 89.0635 31.3503 88.758 31.3715H87.7389V33.2297H88.758C89.0642 33.2501 89.368 33.1638 89.6167 32.9858L89.6158 32.9891ZM95.9883 31.3715H94.2584V35.7148H93.0222V31.3682H91.3006V30.3617H95.9891L95.9883 31.3715ZM100.165 34.5678H97.6547L97.1761 35.7148H95.8939L98.3037 30.3617H99.5391L101.956 35.7148H100.643L100.165 34.5678ZM99.7705 33.6267L98.9135 31.5774L98.0565 33.6267H99.7705ZM37.4051 39.5346H38.648V43.022L41.2249 39.5346H42.4026V44.8877H41.1664V41.4086L38.587 44.8877H37.4051V39.5346ZM49.7448 42.6011C49.9221 42.8271 50.0161 43.1064 50.0113 43.3925C50.0164 43.7059 49.9004 44.0094 49.6872 44.241C49.4472 44.4958 49.1452 44.6854 48.8102 44.7918C48.421 44.9224 48.0124 44.987 47.6015 44.9828C47.2277 44.9824 46.8554 44.9363 46.4931 44.8455C46.1262 44.7538 45.774 44.6121 45.4464 44.4246L45.8332 43.5372C46.0771 43.6831 46.3414 43.7927 46.6175 43.8622C46.89 43.9343 47.1707 43.9715 47.4528 43.9731C47.771 43.9839 48.0869 43.9157 48.3716 43.7746C48.4806 43.7264 48.5732 43.6481 48.6382 43.5491C48.7033 43.4501 48.7381 43.3345 48.7383 43.2164C48.7423 43.1256 48.721 43.0355 48.6769 42.9559C48.6327 42.8763 48.5673 42.8102 48.4877 42.7648C48.2784 42.6529 48.0421 42.6 47.8045 42.6118H46.4872V41.6757H47.7151C47.9236 41.6877 48.1306 41.6342 48.3065 41.5227C48.3743 41.4754 48.4291 41.4122 48.4661 41.3387C48.5032 41.2652 48.5212 41.1838 48.5186 41.1018C48.5186 41.0009 48.4901 40.902 48.4364 40.8162C48.3827 40.7305 48.3059 40.6612 48.2146 40.6163C47.9737 40.4901 47.7034 40.4293 47.4311 40.4402C47.1833 40.4416 46.9366 40.4738 46.6969 40.5361C46.4456 40.5993 46.204 40.6955 45.9785 40.8223L45.6001 39.8588C46.1735 39.5679 46.8094 39.4184 47.4536 39.423C47.8511 39.4185 48.2465 39.4805 48.6231 39.6066C48.948 39.7097 49.2405 39.894 49.4725 40.1416C49.6793 40.3648 49.7925 40.6575 49.7891 40.9604C49.7928 41.2032 49.7198 41.4412 49.5803 41.641C49.4368 41.8437 49.2389 42.0027 49.009 42.0999C49.2989 42.1913 49.555 42.3657 49.7448 42.6011V42.6011ZM56.5759 43.8821V46H55.4165V44.8877H51.6009V45.9967H50.4432L50.4507 43.8788H50.6637C50.9878 43.8689 51.2169 43.6343 51.3511 43.175C51.5109 42.5318 51.5949 41.8725 51.6017 41.2101L51.6635 39.5355H55.8191V43.8788L56.5759 43.8821ZM52.5431 42.9261C52.4973 43.2692 52.3674 43.596 52.1647 43.878H54.582V40.5444H52.7285L52.7051 41.3251C52.6897 41.8619 52.6356 42.3969 52.5431 42.9261V42.9261ZM58.4787 44.6198C58.0404 44.3917 57.6742 44.0483 57.4204 43.6274C57.1699 43.1958 57.0382 42.7068 57.0382 42.2091C57.0382 41.7114 57.1699 41.2224 57.4204 40.7908C57.6742 40.3699 58.0404 40.0265 58.4787 39.7984C58.9482 39.5618 59.4675 39.4385 59.9943 39.4385C60.5211 39.4385 61.0404 39.5618 61.5099 39.7984C61.9511 40.0311 62.32 40.3781 62.5772 40.8024C62.8345 41.2267 62.9704 41.7122 62.9704 42.207C62.9704 42.7019 62.8345 43.1874 62.5772 43.6117C62.32 44.0359 61.9511 44.383 61.5099 44.6156C61.0404 44.8522 60.5211 44.9756 59.9943 44.9756C59.4675 44.9756 58.9482 44.8522 58.4787 44.6156V44.6198ZM60.8609 43.7059C61.1165 43.5628 61.3268 43.3521 61.4682 43.0973C61.6127 42.8235 61.6882 42.5192 61.6882 42.2103C61.6882 41.9015 61.6127 41.5971 61.4682 41.3234C61.327 41.069 61.117 40.8585 60.8617 40.7156C60.5964 40.5724 60.299 40.4974 59.9968 40.4974C59.6946 40.4974 59.3972 40.5724 59.1319 40.7156C58.8766 40.8585 58.6666 41.0689 58.5254 41.3234C58.3809 41.5971 58.3054 41.9015 58.3054 42.2103C58.3054 42.5192 58.3809 42.8235 58.5254 43.0973C58.6667 43.3517 58.8767 43.5622 59.1319 43.7051C59.3973 43.8481 59.6946 43.923 59.9968 43.923C60.299 43.923 60.5963 43.8481 60.8617 43.7051L60.8609 43.7059ZM67.5073 39.772C67.8448 39.9108 68.1311 40.1487 68.3278 40.4536C68.5245 40.7585 68.6221 41.1157 68.6074 41.4772C68.6157 41.8404 68.5164 42.198 68.3217 42.506C68.1235 42.8055 67.8397 43.0398 67.5065 43.1792C67.112 43.3428 66.687 43.4223 66.2594 43.4124H65.1735V44.8885H63.9206V39.5346H66.2594C66.688 39.5247 67.1138 39.6056 67.5082 39.772H67.5073ZM67.0479 42.162C67.1469 42.0779 67.2248 41.9724 67.2758 41.8536C67.3268 41.7349 67.3495 41.6061 67.3419 41.4772C67.3499 41.3472 67.3275 41.2172 67.2765 41.0972C67.2255 40.9771 67.1473 40.8703 67.0479 40.785C66.7993 40.6085 66.4962 40.5234 66.1909 40.5444H65.1719V42.4026H66.1909C66.4962 42.4237 66.7993 42.3385 67.0479 42.162ZM70.5737 44.6206C70.1355 44.3924 69.7693 44.049 69.5154 43.6282C69.265 43.1966 69.1332 42.7076 69.1332 42.2099C69.1332 41.7122 69.265 41.2232 69.5154 40.7917C69.7693 40.3708 70.1355 40.0275 70.5737 39.7993C71.0433 39.5625 71.5628 39.4391 72.0897 39.4391C72.6167 39.4391 73.1362 39.5625 73.6058 39.7993C74.0469 40.0319 74.4159 40.379 74.6731 40.8032C74.9304 41.2275 75.0663 41.713 75.0663 42.2079C75.0663 42.7027 74.9304 43.1882 74.6731 43.6125C74.4159 44.0368 74.0469 44.3838 73.6058 44.6165C73.1362 44.8532 72.6167 44.9766 72.0897 44.9766C71.5628 44.9766 71.0433 44.8532 70.5737 44.6165V44.6206ZM72.9568 43.7068C73.2122 43.5633 73.4221 43.3523 73.5632 43.0973C73.7078 42.8236 73.7833 42.5192 73.7833 42.2103C73.7833 41.9014 73.7078 41.5971 73.5632 41.3234C73.422 41.069 73.212 40.8585 72.9568 40.7156C72.6913 40.5723 72.3938 40.4973 72.0914 40.4973C71.7891 40.4973 71.4915 40.5723 71.2261 40.7156C70.9708 40.8585 70.7608 41.0689 70.6196 41.3234C70.4751 41.5971 70.3996 41.9015 70.3996 42.2103C70.3996 42.5192 70.4751 42.8235 70.6196 43.0973C70.7609 43.3517 70.9708 43.5622 71.2261 43.7051C71.4916 43.8481 71.7891 43.9231 72.0914 43.9231C72.3937 43.9231 72.6912 43.8481 72.9568 43.7051V43.7068ZM80.5178 42.5713C80.6973 42.8033 80.7903 43.0897 80.781 43.3818C80.79 43.5968 80.745 43.8107 80.6499 44.0043C80.5549 44.1978 80.4128 44.365 80.2363 44.4908C79.7733 44.7831 79.2283 44.9221 78.6802 44.8877H76.0156V39.5346H78.5332C79.0478 39.5051 79.5593 39.6302 80.0008 39.8935C80.1698 40.0053 80.3069 40.1583 80.3989 40.3378C80.491 40.5172 80.5348 40.7171 80.5262 40.9182C80.5312 41.1661 80.4611 41.4098 80.3249 41.6178C80.1844 41.8249 79.9894 41.9902 79.7611 42.0958C80.0574 42.1718 80.3222 42.3382 80.5178 42.5713V42.5713ZM77.2602 41.7526H78.4296C78.6486 41.7678 78.8663 41.7095 79.0477 41.5872C79.1142 41.525 79.1672 41.45 79.2034 41.3668C79.2396 41.2836 79.2582 41.194 79.2582 41.1034C79.2582 41.0128 79.2396 40.9232 79.2034 40.84C79.1672 40.7569 79.1142 40.6819 79.0477 40.6196C78.8679 40.4973 78.6514 40.439 78.4338 40.4542H77.2644L77.2602 41.7526ZM79.5155 43.2817C79.5155 42.8406 79.222 42.6201 78.6351 42.6201H77.2585V43.9739H78.6334C79.2209 43.9711 79.5144 43.7404 79.5138 43.2817H79.5155ZM85.9071 41.7295C86.0889 41.8908 86.2311 42.0911 86.3227 42.3151C86.4143 42.5391 86.4531 42.7809 86.4359 43.022C86.4526 43.2823 86.4086 43.5428 86.3072 43.7834C86.2058 44.0241 86.0497 44.2384 85.8512 44.4097C85.3776 44.7547 84.7966 44.9239 84.2098 44.8877H81.7699V39.5346H83.0129V41.2936H84.3878C84.9296 41.2582 85.4668 41.4125 85.9055 41.7295H85.9071ZM84.9048 43.7332C84.9991 43.6456 85.0725 43.5384 85.1199 43.4193C85.1673 43.3001 85.1874 43.1721 85.1788 43.0444C85.1788 42.4886 84.8338 42.2108 84.1438 42.2108H83.0162V43.9698H84.1438C84.4171 43.9854 84.6867 43.9012 84.9015 43.7332H84.9048ZM91.3499 39.5346V44.8877H90.1145V43.4653H88.971L88.0129 44.8877H86.6923L87.82 43.2743C87.4758 43.1435 87.1814 42.9096 86.978 42.6052C86.7758 42.2831 86.6738 41.9092 86.6848 41.5302C86.6746 41.1548 86.7738 40.7844 86.9705 40.4633C87.1669 40.1602 87.4489 39.921 87.7815 39.7753C88.171 39.6068 88.5929 39.5247 89.0178 39.5346H91.3499ZM88.2334 40.7892C88.1355 40.8823 88.0595 40.9956 88.0109 41.1211C87.9622 41.2466 87.9421 41.3812 87.9519 41.5153C87.9435 41.6472 87.9633 41.7793 88.0099 41.9032C88.0565 42.027 88.129 42.1397 88.2226 42.2339C88.4448 42.4165 88.7297 42.5069 89.0178 42.4861H90.1145V40.5444H89.0487C88.7547 40.5236 88.4633 40.6108 88.2301 40.7892H88.2334Z" fill="white"/>
</svg>
