<svg version="1.1" xmlns="http://www.w3.org/2000/svg" fill="none" viewBox="0 0 396.85 198.43">
	<path d="M227.37,82.06c0.06,0,0.11,0.05,0.12,0.1c0.01,0.07-0.02,0.11-0.07,0.13c-1.25,0.71-2.26,1.79-2.89,3.1l-0.02,0.03
		l-11.9,24.61l-2.36,4.88c-0.01,0.03-0.06,0.1-0.16,0.1c-0.1,0-0.15-0.07-0.17-0.12l-0.94-2l-12-25.54
		c-0.33-0.71-0.65-1.48-1.05-2.17c-0.71-1.25-1.77-2.25-3.06-2.89c-0.05-0.02-0.08-0.08-0.07-0.14c0.02-0.05,0.06-0.1,0.12-0.1h1.56
		h4.98h2.7c0.04,0,0.1,0.03,0.12,0.08c0.02,0.06,0.01,0.11-0.04,0.15c-0.66,0.65-1.08,1.57-1.08,2.58c0,0.37,0.06,0.73,0.16,1.07
		c0.23,0.75,0.72,1.62,1.06,2.34c2.18,4.66,4.35,9.33,6.55,13.98c0.83,1.73,1.65,3.47,2.47,5.22c0.02,0.03,0.06,0.05,0.09,0.05
		c0.03,0,0.07-0.01,0.09-0.06c1.37-2.76,2.71-5.53,4.04-8.31l5.51-11.43c0.44-0.92,1.08-1.93,1.08-2.98c0-0.98-0.43-1.86-1.13-2.46
		c-0.05-0.04-0.07-0.1-0.03-0.16c0.02-0.05,0.07-0.08,0.12-0.08h2.7h2.25H227.37z M145.63,89.57c0-3.44,3.12-7.48,8.18-7.48
		c3.32,0,4.85,1.46,7.49,1.97c0.06,0.01,0.12,0.06,0.15,0.11c0.03,0.04,0.04,0.1,0.03,0.14l-0.45,4.48
		c-0.01,0.06-0.05,0.09-0.09,0.09c-0.06,0-0.1-0.04-0.11-0.08c-0.61-3.44-3.63-5.35-7.07-5.39c-2.21-0.02-4.5,0.89-5.06,3.22
		c-0.31,1.26,0.03,2.3,0.55,3.11c2.56,4,13.73,8.7,13.73,16.34c0,6.07-4.61,9.16-10.25,8.92c-2.22-0.09-4.39-1.21-6.03-0.76
		c-0.05,0.01-0.1,0.01-0.13,0c-0.05-0.01-0.09-0.04-0.12-0.09c-0.69-0.95-1.28-2.52-1.23-5.06c0-0.04,0.03-0.13,0.13-0.16
		c0.09-0.02,0.17,0.04,0.19,0.08c1.33,2.98,3.82,4.51,7.17,4.58c3.31,0.06,6.86-1.33,6.96-4.9c0.12-3.84-4.18-6.67-7.12-8.87
		c-1.67-1.25-4.38-3.43-5.49-5.13C145.82,92.77,145.63,91.65,145.63,89.57 M295.94,82.15c0.01,0.01,0.03,0.09-0.06,0.14
		c-1.02,0.58-1.88,1.41-2.49,2.41c-0.27,0.44-0.5,0.95-0.72,1.42c-4.3,8.94-8.59,17.91-12.97,26.8l-0.71,1.48l0-0.02
		c-0.61,1.22-1.41,2.52-2.23,3.23c-0.95,0.82-2.26,1.38-4.38,1.45c-0.03,0-0.09-0.01-0.11-0.07c-0.02-0.07,0.02-0.11,0.06-0.12
		c1.46-0.72,2.5-1.67,3.31-2.72c0.87-1.13,1.61-2.57,2.26-3.95c0.01-0.03,0.02-0.06,0.02-0.07c0-0.02-0.01-0.06-0.02-0.08
		l-12.1-25.75c-0.26-0.54-0.48-1.05-0.8-1.55c-0.68-1.05-1.64-1.9-2.76-2.46c-0.04-0.02-0.09-0.08-0.07-0.14
		c0.02-0.06,0.07-0.09,0.12-0.09c2.99,0,5.99,0,8.98,0c0.06,0,0.11,0.05,0.12,0.08c0.01,0.03,0.02,0.09-0.03,0.15
		c-0.65,0.64-1.05,1.53-1.05,2.51c0,0.87,0.23,1.27,0.57,2l9.4,20c0.03,0.05,0.07,0.07,0.11,0.07c0.04,0,0.09-0.02,0.11-0.07
		l9.69-20.04c0.34-0.71,0.65-1.23,0.65-2.07c0-0.96-0.43-1.81-1.1-2.39c-0.07-0.06-0.04-0.14-0.03-0.15c0-0.03,0.05-0.08,0.12-0.08
		h6.01C295.9,82.06,295.93,82.13,295.94,82.15 M255.42,98.02c0-7.9-5.13-14.3-11.46-14.3c-6.32,0-11.45,6.4-11.45,14.3
		c0,0.44,0,0.89,0,1.33c0.12,7.77,5.21,14.02,11.45,14.02c6.12,0,11.11-5.98,11.44-13.51C255.43,99.24,255.42,98.63,255.42,98.02
		 M260.29,99.79c-0.37,8.47-7.66,15.22-16.33,15.22c-8.79,0-16.16-6.96-16.32-15.6c-0.01-0.48,0-0.97,0-1.45
		c0-8.78,7.43-15.89,16.32-15.89c8.9,0,16.35,7.12,16.35,15.89C260.3,98.56,260.31,99.18,260.29,99.79 M173.57,104.54
		c2.41-4.99,4.76-10,7.23-14.95c0.02-0.05,0.07-0.06,0.09-0.06c0.03,0,0.08,0.02,0.09,0.05c2.35,4.99,4.74,9.95,7.03,14.96
		c0.02,0.04,0,0.08,0,0.09c-0.01,0.02-0.03,0.05-0.09,0.05h-14.25c-0.03,0-0.07-0.02-0.09-0.05
		C173.56,104.6,173.56,104.57,173.57,104.54 M165.03,115.01h1.24h2.24c0.9,0,1.8,0,2.7,0c0.05,0,0.1-0.03,0.12-0.07
		c0.02-0.06,0.01-0.12-0.04-0.16c-0.69-0.6-1.13-1.48-1.13-2.46c0-0.77,0.23-1.21,0.53-1.84l1.81-3.74
		c0.02-0.04,0.05-0.07,0.07-0.08c0.02-0.02,0.05-0.03,0.1-0.03h16.2c0.05,0,0.08,0.02,0.1,0.03c0.02,0.02,0.05,0.04,0.06,0.08
		l1.69,3.6c0.12,0.27,0.24,0.49,0.33,0.78c0.11,0.34,0.16,0.7,0.16,1.08c0,1.01-0.42,1.93-1.08,2.58c-0.04,0.04-0.06,0.09-0.03,0.15
		c0.02,0.05,0.08,0.07,0.12,0.07h2.7h4.98h1.57c0.06,0,0.11-0.04,0.12-0.09c0.01-0.06-0.02-0.12-0.07-0.14
		c-1.35-0.66-2.46-1.73-3.16-3.06c-0.12-0.24-0.23-0.48-0.35-0.72l-12.61-26.82l-0.94-2c-0.02-0.05-0.07-0.12-0.17-0.12
		c-0.1,0-0.15,0.08-0.16,0.1l-2.36,4.88l-11.77,24.35c-0.12,0.26-0.25,0.51-0.39,0.76c-0.63,1.09-1.55,2-2.64,2.62
		c-0.04,0.03-0.07,0.06-0.06,0.13C164.92,114.96,164.97,115.01,165.03,115.01 M125.94,110.32c0.2,3.44-1.26,7.69-5.14,9.39
		c-1.51,0.66-3.51,1.09-5.77,0.7c-0.08-0.02-0.15-0.03-0.22-0.04c-0.02,0-0.02-0.02-0.02-0.03c0-0.01,0.01-0.02,0.02-0.02
		c0.07,0,0.15,0.02,0.23,0.02c2.03,0.22,3.91-0.28,5.38-1.1c3-1.68,4.67-5.09,4.27-8.84c-0.42-3.94-2.72-7.86-8.95-11.31
		c-4.59-2.55-7.99-5.86-7.82-11.24c0.13-4,2.01-7.77,6.28-10.15c0.19-0.1,0.26-0.14,0.46-0.2c0.66-0.17,0.2,0.01-0.14,0.25
		c-2.66,1.88-5.33,5.56-5.34,10.03c-0.01,5.68,4.37,8.04,8.56,10.7C122.85,101.73,125.67,105.53,125.94,110.32 M117.39,78.69
		c0.33,0,0.31,0.05,0.37,0.32c0.42,1.78-1.27,3.15-3,2.41c-0.34-0.15-0.3-0.19-0.22-0.54C114.83,79.59,115.94,78.68,117.39,78.69
		 M130.84,101.28c-3.83-0.4-2.68-4.28-5.79-5.97c-1.21-0.66-2.81-0.72-5.07,0.5c-0.16,0.09-0.21,0.15-0.29,0.14
		c-0.07-0.01-0.12-0.08-0.31-0.25c-0.73-0.67-1.43-1.33-2.06-1.96c-0.08-0.08-0.09-0.11-0.09-0.13c0-0.02,0.01-0.07,0.1-0.1
		c2.57-0.98,4.96-4.73,7.04-2.75c0.03,0.03,0.07,0.03,0.1,0.01c0.02-0.02,0.04-0.05,0.02-0.09c-0.91-2.43-2.16-2.97-3.47-2.81
		c-1.78,0.22-3.2,1.97-5.08,1.58c-1.73-0.37-1.86-2.63-1.55-4.06c0.01-0.04,0.03-0.06,0.04-0.07c0.01-0.01,0.03-0.03,0.07-0.04
		c2.34-0.45,4.53-1.14,5.66-4.26c0.86-2.37,1.06-3.22,0.49-3.94c-0.23-0.29-0.56-0.51-1.15-0.53c-0.83-0.02-1.94,0.1-2.77,0.18
		c-1.95,0.18-2.83,0.24-3.74,0.47c-0.78,0.19-1.44,0.62-2.46,1.68c-3.27,3.5-4.01,6.63-4.2,10.59c0,0.03-0.03,0.05-0.04,0.06
		c-0.04,0.01-0.06,0-0.07-0.02c-0.89-1.15-1.67-3.15-5.27-2.59c-0.05,0.01-0.06,0.05-0.06,0.07c0,0.02,0.01,0.06,0.05,0.08
		c4.55,1.43,1.25,6.35,6.05,6.43c0.03,0,0.07,0.02,0.08,0.03c0.03,0.02,0.05,0.04,0.06,0.08c1.04,2.7,2.95,4.61,4.99,6.09
		c-1.32,1.13-1.44,2.6-1.18,3.74c0.28,1.2,0.83,2.46,1.14,3.56c0.32,1.13-0.12,2.63-1.26,3.32c-0.04,0.02-0.04,0.06-0.04,0.08
		c0,0.01,0.02,0.06,0.06,0.06c2.56,0.34,3.8-1.67,3.88-3.03c0.07-1.26-0.37-2.75,0.46-3.78c0.2-0.25,0.54-0.57,1.03-0.7
		c1.19-0.32,2.6,0.93,3.46,1.66c2.05,1.74,3.51,3.95,3.4,7.16c-0.14,3.87-3.64,7.37-7.59,7.3c-4.62-0.07-7.56-4-7.58-7.04
		c-0.01-2.13,0.34-3.54,1.39-4.97c0.01-0.02,0.01-0.05,0-0.07c-0.01-0.02-0.04-0.02-0.06-0.01c-0.42,0.23-0.99,0.5-1.29,0.84
		c-0.96,1.08-1.55,2.96-1.55,5.2c0,2.04,1.27,4.4,3.05,5.99c1.94,1.73,4.57,2.91,7.24,2.92c3.51,0.01,6.05-1.07,8.25-3.15
		c2.07-1.96,3.47-4.78,3.54-7.69c0.1-4.73-1.99-8.41-4.82-11.23c-0.03-0.04-0.1-0.09-0.09-0.15c0.01-0.05,0.04-0.07,0.12-0.09
		c0.53-0.1,0.97,0.07,1.24,0.34c1.68,1.66,3.46,2.93,5.96,1.49c0.03-0.02,0.04-0.04,0.04-0.08
		C130.91,101.32,130.89,101.28,130.84,101.28" fill="#bc945b" transform="scale(2)" transform-origin="center"/>
</svg>
