<svg width="59" height="59" viewBox="0 0 59 59" fill="none" xmlns="http://www.w3.org/2000/svg">
<path d="M29.283 57.566C44.9033 57.566 57.566 44.9033 57.566 29.283C57.566 13.6627 44.9033 1 29.283 1C13.6627 1 1 13.6627 1 29.283C1 44.9033 13.6627 57.566 29.283 57.566Z" stroke="black" stroke-width="2"/>
<path d="M30.392 28.3019V20.3319C30.392 19.7469 30.626 19.2549 31.34 19.2549C31.6177 19.2658 31.8802 19.3843 32.0721 19.5853C32.2639 19.7863 32.3701 20.054 32.368 20.3319" stroke="black" stroke-width="1.5"/>
<path d="M35.5941 28.7029V20.3319C35.5941 19.7469 35.8281 19.2549 36.5421 19.2549C36.8197 19.2658 37.0822 19.3843 37.2741 19.5853C37.4659 19.7863 37.5721 20.054 37.5701 20.3319" stroke="black" stroke-width="1.5"/>
<path d="M35.715 22.6455H31.597" stroke="black" stroke-width="1.5"/>
<path d="M35.715 25.4717H31.597" stroke="black" stroke-width="1.5"/>
<path d="M18.2271 32.6739C18.319 32.108 18.6308 31.6013 19.0945 31.2642C19.5583 30.9271 20.1364 30.7868 20.7031 30.8739C22.8391 30.8739 23.8881 33.1879 26.1981 33.1879C28.5081 33.1879 30.3061 30.8739 32.3681 30.8739C34.7501 30.8739 35.2521 33.1879 37.8591 33.1879C38.7916 33.1515 39.7138 32.9783 40.5961 32.6739C37.2867 36.7879 33.6031 38.8449 29.5451 38.8449C25.4871 38.8449 21.7144 36.7879 18.2271 32.6739Z" stroke="black" stroke-width="1.5" stroke-linecap="round" stroke-linejoin="round"/>
<path d="M16.17 30.4045C16.5597 29.5426 17.1939 28.8142 17.9939 28.3095C18.7938 27.8048 19.7244 27.5461 20.67 27.5655C23.67 27.5655 24.357 30.1015 26.651 30.1015C29.109 30.1015 29.441 27.5655 32.356 27.5655C35.271 27.5655 35.821 30.0975 38.438 30.0975C40.017 29.9516 41.4834 29.2173 42.546 28.0405" stroke="black" stroke-width="1.5" stroke-linecap="round" stroke-linejoin="round"/>
</svg>
