<svg width="35" height="35" viewBox="0 0 35 35" fill="none" xmlns="http://www.w3.org/2000/svg">
<path d="M17.5 34C26.6127 34 34 26.6127 34 17.5C34 8.3873 26.6127 1 17.5 1C8.3873 1 1 8.3873 1 17.5C1 26.6127 8.3873 34 17.5 34Z" stroke="black" stroke-width="1.5"/>
<path d="M18.147 16.9283V12.2787C18.147 11.9374 18.2835 11.6504 18.7 11.6504C18.862 11.6567 19.0152 11.7259 19.1271 11.8431C19.239 11.9604 19.3009 12.1166 19.2997 12.2787" stroke="black"/>
<path d="M21.1817 17.1623V12.2787C21.1817 11.9374 21.3182 11.6504 21.7348 11.6504C21.8967 11.6567 22.0499 11.7259 22.1618 11.8431C22.2737 11.9604 22.3357 12.1166 22.3345 12.2787" stroke="black"/>
<path d="M21.2523 13.6289H18.8499" stroke="black"/>
<path d="M21.2523 15.2773H18.8499" stroke="black"/>
<path d="M11.05 19.4789C11.1037 19.1487 11.2856 18.8532 11.5561 18.6565C11.8266 18.4598 12.1639 18.378 12.4945 18.4288C13.7406 18.4288 14.3526 19.7787 15.7002 19.7787C17.0478 19.7787 18.0968 18.4288 19.2997 18.4288C20.6894 18.4288 20.9822 19.7787 22.5031 19.7787C23.0472 19.7575 23.5852 19.6565 24.0999 19.4789C22.1692 21.8789 20.0202 23.079 17.6528 23.079C15.2854 23.079 13.0845 21.8789 11.05 19.4789Z" stroke="black" stroke-linecap="round" stroke-linejoin="round"/>
<path d="M9.84998 18.1549C10.0773 17.6521 10.4473 17.2271 10.914 16.9327C11.3807 16.6383 11.9235 16.4873 12.4752 16.4986C14.2254 16.4986 14.6262 17.9781 15.9645 17.9781C17.3984 17.9781 17.5921 16.4986 19.2927 16.4986C20.9933 16.4986 21.3142 17.9758 22.8409 17.9758C23.762 17.8907 24.6175 17.4623 25.2375 16.7757" stroke="black" stroke-linecap="round" stroke-linejoin="round"/>
</svg>
