<svg width="26" height="26" viewBox="0 0 26 26" fill="none" xmlns="http://www.w3.org/2000/svg">
<path d="M13 25C19.6274 25 25 19.6274 25 13C25 6.37258 19.6274 1 13 1C6.37258 1 1 6.37258 1 13C1 19.6274 6.37258 25 13 25Z" stroke="black"/>
<path d="M13.4704 12.5836V9.20207C13.4704 8.95386 13.5697 8.74512 13.8726 8.74512C13.9905 8.74974 14.1018 8.80001 14.1832 8.88529C14.2646 8.97058 14.3097 9.08418 14.3088 9.20207" stroke="black" stroke-width="0.7"/>
<path d="M15.6776 12.7537V9.20207C15.6776 8.95386 15.7769 8.74512 16.0799 8.74512C16.1977 8.74974 16.3091 8.80001 16.3905 8.88529C16.4719 8.97058 16.5169 9.08418 16.516 9.20207" stroke="black" stroke-width="0.7"/>
<path d="M15.729 10.1836H13.9818" stroke="black" stroke-width="0.7"/>
<path d="M15.729 11.3828H13.9818" stroke="black" stroke-width="0.7"/>
<path d="M8.30902 14.4385C8.34805 14.1984 8.48033 13.9834 8.67708 13.8404C8.87383 13.6973 9.11912 13.6378 9.35955 13.6748C10.2658 13.6748 10.7109 14.6566 11.691 14.6566C12.6711 14.6566 13.4339 13.6748 14.3088 13.6748C15.3195 13.6748 15.5324 14.6566 16.6385 14.6566C17.0342 14.6411 17.4255 14.5676 17.7998 14.4385C16.3957 16.184 14.8328 17.0567 13.1111 17.0567C11.3893 17.0567 9.78864 16.184 8.30902 14.4385Z" stroke="black" stroke-width="0.7" stroke-linecap="round" stroke-linejoin="round"/>
<path d="M7.43634 13.4755C7.60168 13.1098 7.87075 12.8007 8.21016 12.5866C8.54957 12.3725 8.94439 12.2627 9.34561 12.2709C10.6185 12.2709 10.9099 13.3469 11.8833 13.3469C12.9261 13.3469 13.067 12.2709 14.3038 12.2709C15.5406 12.2709 15.7739 13.3452 16.8843 13.3452C17.5542 13.2833 18.1764 12.9718 18.6272 12.4725" stroke="black" stroke-width="0.7" stroke-linecap="round" stroke-linejoin="round"/>
</svg>
