<svg width="35" height="35" viewBox="0 0 35 35" fill="none" xmlns="http://www.w3.org/2000/svg">
<path d="M17.5 34C26.6127 34 34 26.6127 34 17.5C34 8.3873 26.6127 1 17.5 1C8.3873 1 1 8.3873 1 17.5C1 26.6127 8.3873 34 17.5 34Z" stroke="black" stroke-width="1.5"/>
<path d="M16.6078 13.9178C18.3395 13.9178 19.1593 14.0157 19.9119 13.2943C20.6645 12.5729 20.6576 11.8226 20.0578 11.2222C19.458 10.6219 17.7501 10.3463 16.3079 10.4841C14.8658 10.6219 13.6077 11.5227 13.6077 12.4224C13.6077 13.3221 14.8756 13.9178 16.6078 13.9178Z" stroke="black"/>
<path d="M17.5075 18.7221C15.1231 18.7831 13.5674 18.5234 12.8407 17.9429C11.7499 17.0744 11.9549 15.8778 12.8407 15.1222C13.9327 14.3232 15.2548 13.9006 16.6079 13.918C17.8743 13.8633 19.141 14.0168 20.3577 14.3725C20.7902 14.4863 21.1847 14.7129 21.501 15.0292C21.8172 15.3454 22.0438 15.7399 22.1577 16.1724" stroke="black"/>
<path d="M14.8079 18.5723C11.8468 19.6209 10.5065 20.7709 10.7871 22.0222C11.208 23.8997 13.2499 24.4028 14.6579 24.4028H20.9106C21.5555 24.4028 23.3943 23.8505 23.3943 22.1722C23.3684 21.8723 23.3055 21.4267 23.2055 20.8354" stroke="black"/>
<path d="M20.5643 19.6305C20.9752 19.6305 21.3083 19.2974 21.3083 18.8865C21.3083 18.4757 20.9752 18.1426 20.5643 18.1426C20.1535 18.1426 19.8204 18.4757 19.8204 18.8865C19.8204 19.2974 20.1535 19.6305 20.5643 19.6305Z" stroke="black"/>
<path d="M21.2701 16.4356C20.5618 15.3599 19.9076 15.422 19.3074 16.622C18.4072 16.472 17.5075 16.7719 18.1073 18.272C17.207 18.5719 16.9071 19.772 18.4072 20.0719C18.1073 21.1221 18.2572 22.0218 19.9124 21.3937C20.5082 22.4717 21.5717 22.32 21.8583 21.2721C22.7586 21.3937 23.8082 20.9826 22.9085 19.6221C23.8088 19.3222 24.4086 18.1429 22.9085 17.6826C23.1061 16.4753 22.56 16.0596 21.2701 16.4356Z" stroke="black"/>
</svg>
