<svg width="26" height="26" viewBox="0 0 26 26" fill="none" xmlns="http://www.w3.org/2000/svg">
<path d="M13 25C19.6274 25 25 19.6274 25 13C25 6.37258 19.6274 1 13 1C6.37258 1 1 6.37258 1 13C1 19.6274 6.37258 25 13 25Z" stroke="black"/>
<path d="M12.3511 10.3947C13.6105 10.3947 14.2067 10.4659 14.7541 9.94122C15.3015 9.41659 15.2964 8.8709 14.8602 8.43427C14.424 7.99764 13.1819 7.79722 12.133 7.89743C11.0842 7.99764 10.1693 8.6528 10.1693 9.30711C10.1693 9.96143 11.0914 10.3947 12.3511 10.3947Z" stroke="black" stroke-width="0.7"/>
<path d="M13.0055 13.8885C11.2713 13.9328 10.1399 13.7439 9.61136 13.3217C8.81809 12.6901 8.96715 11.8198 9.61136 11.2704C10.4056 10.6893 11.3671 10.3819 12.3511 10.3946C13.2722 10.3548 14.1935 10.4664 15.0783 10.7251C15.3929 10.8079 15.6798 10.9727 15.9098 11.2027C16.1398 11.4327 16.3046 11.7196 16.3874 12.0341" stroke="black" stroke-width="0.7"/>
<path d="M11.042 13.7793C8.88847 14.542 7.91373 15.3783 8.1178 16.2883C8.42391 17.6538 9.90896 18.0197 10.933 18.0197H15.4803C15.9494 18.0197 17.2866 17.618 17.2866 16.3974C17.2678 16.1793 17.2221 15.8552 17.1494 15.4252" stroke="black" stroke-width="0.7"/>
<path d="M15.2286 14.5489C15.5274 14.5489 15.7697 14.3067 15.7697 14.0078C15.7697 13.709 15.5274 13.4668 15.2286 13.4668C14.9298 13.4668 14.6876 13.709 14.6876 14.0078C14.6876 14.3067 14.9298 14.5489 15.2286 14.5489Z" stroke="black" stroke-width="0.7"/>
<path d="M15.7418 12.2256C15.2267 11.4433 14.7509 11.4885 14.3144 12.3612C13.6597 12.2521 13.0054 12.4702 13.4416 13.5612C12.7868 13.7793 12.5687 14.6521 13.6597 14.8702C13.4416 15.634 13.5506 16.2883 14.7544 15.8315C15.1877 16.6155 15.9612 16.5052 16.1696 15.7431C16.8243 15.8315 17.5877 15.5325 16.9334 14.5431C17.5881 14.325 18.0243 13.4673 16.9334 13.1325C17.0771 12.2545 16.6799 11.9522 15.7418 12.2256Z" stroke="black" stroke-width="0.7"/>
</svg>
