<svg width="59" height="59" viewBox="0 0 59 59" fill="none" xmlns="http://www.w3.org/2000/svg">
<path d="M29.5 58C45.2401 58 58 45.2401 58 29.5C58 13.7599 45.2401 1 29.5 1C13.7599 1 1 13.7599 1 29.5C1 45.2401 13.7599 58 29.5 58Z" stroke="black" stroke-width="2"/>
<path d="M27.959 23.3135C30.95 23.3135 32.366 23.4825 33.666 22.2365C34.966 20.9905 34.954 19.6945 33.918 18.6575C32.882 17.6205 29.932 17.1445 27.441 17.3825C24.95 17.6205 22.777 19.1765 22.777 20.7305C22.777 22.2845 24.967 23.3135 27.959 23.3135Z" stroke="black" stroke-width="1.5"/>
<path d="M29.513 31.6125C25.3943 31.7179 22.7073 31.2692 21.452 30.2665C19.568 28.7665 19.922 26.6995 21.452 25.3945C23.3383 24.0144 25.6219 23.2845 27.959 23.3145C30.1464 23.22 32.3345 23.4852 34.436 24.0995C35.1831 24.2961 35.8645 24.6875 36.4108 25.2338C36.957 25.78 37.3484 26.4615 37.545 27.2085" stroke="black" stroke-width="1.5"/>
<path d="M24.85 31.3535C19.7354 33.1648 17.4204 35.1512 17.905 37.3125C18.632 40.5555 22.159 41.4245 24.591 41.4245H35.391C36.505 41.4245 39.681 40.4705 39.681 37.5715C39.6364 37.0535 39.5277 36.2838 39.355 35.2625" stroke="black" stroke-width="1.5"/>
<path d="M34.7931 33.1813C35.5027 33.1813 36.0781 32.606 36.0781 31.8963C36.0781 31.1866 35.5027 30.6113 34.7931 30.6113C34.0834 30.6113 33.5081 31.1866 33.5081 31.8963C33.5081 32.606 34.0834 33.1813 34.7931 33.1813Z" stroke="black" stroke-width="1.5"/>
<path d="M36.012 27.6631C34.7887 25.8051 33.6587 25.9124 32.622 27.9851C31.067 27.7261 29.513 28.2441 30.549 30.8351C28.994 31.3531 28.476 33.4261 31.067 33.9441C30.549 35.7581 30.808 37.3121 33.667 36.2271C34.696 38.0891 36.533 37.8271 37.028 36.0171C38.583 36.2271 40.396 35.5171 38.842 33.1671C40.397 32.6491 41.433 30.6121 38.842 29.8171C39.1834 27.7318 38.24 27.0138 36.012 27.6631Z" stroke="black" stroke-width="1.5"/>
</svg>
