<svg width="35" height="35" viewBox="0 0 35 35" fill="none" xmlns="http://www.w3.org/2000/svg">
<path d="M17.5 34C26.6127 34 34 26.6127 34 17.5C34 8.3873 26.6127 1 17.5 1C8.3873 1 1 8.3873 1 17.5C1 26.6127 8.3873 34 17.5 34Z" stroke="black" stroke-width="1.5"/>
<path d="M20.1857 14.2398C20.8225 14.2398 21.3388 13.7236 21.3388 13.0867C21.3388 12.4499 20.8225 11.9336 20.1857 11.9336C19.5488 11.9336 19.0325 12.4499 19.0325 13.0867C19.0325 13.7236 19.5488 14.2398 20.1857 14.2398Z" stroke="black"/>
<path d="M13.4483 22.5329C13.2761 22.2918 13.1801 22.0046 13.1727 21.7084C13.1727 21.2962 13.7864 20.4505 13.7864 19.765C13.7864 19.0795 13.1727 18.6189 13.1727 17.8474C13.1727 17.0759 13.7864 16.5553 13.7864 15.7797C13.793 15.4278 13.673 15.0853 13.4483 14.8145" stroke="black" stroke-linecap="round"/>
<path d="M15.6351 18.4507C15.4629 18.2096 15.3669 17.9224 15.3595 17.6262C15.3595 17.214 15.9737 16.3683 15.9737 15.6828C15.9737 14.9973 15.3595 14.5367 15.3595 13.7652C15.3595 12.9937 15.9743 12.4708 15.9743 11.6957C15.9635 11.3469 15.8455 11.0098 15.6363 10.7305" stroke="black" stroke-linecap="round"/>
<path d="M11.3747 20.4072C11.5469 20.1661 11.6429 19.8789 11.6503 19.5827C11.6503 19.1705 11.0361 18.3248 11.0361 17.6393C11.0361 16.9538 11.6503 16.492 11.6503 15.7199C11.6503 14.9479 11.0361 14.4278 11.0361 13.6522C11.0312 13.3006 11.151 12.9587 11.3741 12.687" stroke="black" stroke-linecap="round"/>
<path d="M19.9089 14.9088C20.3718 14.771 20.8741 15.0466 21.0119 15.8741C21.1038 16.4238 21.2412 17.5266 21.4242 19.1827C21.4407 19.3128 21.4269 19.445 21.384 19.569C21.3411 19.693 21.2703 19.8054 21.1769 19.8975C21.0836 19.9897 20.9702 20.0591 20.8457 20.1004C20.7212 20.1417 20.5889 20.1537 20.4589 20.1356C19.8154 20.1438 19.1262 20.1438 18.3912 20.1356L17.979 22.079C17.9474 22.2739 17.8467 22.4508 17.6952 22.5773C17.5438 22.7039 17.3518 22.7716 17.1545 22.7681C17.02 22.7704 16.8869 22.7408 16.7661 22.6816C16.6453 22.6224 16.5403 22.5354 16.4598 22.4277C16.3793 22.3199 16.3255 22.1946 16.3029 22.062C16.2804 21.9294 16.2896 21.7933 16.33 21.665C16.4218 21.2975 16.6056 20.4703 16.8812 19.1833C16.9006 18.9832 16.998 18.7987 17.1523 18.6698C17.3065 18.5409 17.5053 18.4778 17.7057 18.4942H19.6356C19.5112 17.5751 19.4193 16.8399 19.36 16.2887C19.2711 15.4601 19.4478 15.0466 19.9089 14.9088Z" stroke="black"/>
<path d="M16.2021 24.0741H20.476V21.4545H22.9577V18.835H24.1986" stroke="black" stroke-linecap="round"/>
</svg>
