<svg width="26" height="26" viewBox="0 0 26 26" fill="none" xmlns="http://www.w3.org/2000/svg">
<path d="M13 25C19.6274 25 25 19.6274 25 13C25 6.37258 19.6274 1 13 1C6.37258 1 1 6.37258 1 13C1 19.6274 6.37258 25 13 25Z" stroke="black"/>
<path d="M14.9531 10.6284C15.4163 10.6284 15.7918 10.253 15.7918 9.78981C15.7918 9.32664 15.4163 8.95117 14.9531 8.95117C14.49 8.95117 14.1145 9.32664 14.1145 9.78981C14.1145 10.253 14.49 10.6284 14.9531 10.6284Z" stroke="black" stroke-width="0.7"/>
<path d="M10.0532 16.6593C9.92799 16.484 9.85817 16.2751 9.85278 16.0597C9.85278 15.7599 10.2991 15.1448 10.2991 14.6463C10.2991 14.1477 9.85278 13.8128 9.85278 13.2517C9.85278 12.6906 10.2991 12.312 10.2991 11.7479C10.3039 11.492 10.2166 11.2429 10.0532 11.0459" stroke="black" stroke-width="0.7" stroke-linecap="round"/>
<path d="M11.6436 13.6909C11.5184 13.5156 11.4486 13.3067 11.4432 13.0913C11.4432 12.7915 11.8899 12.1764 11.8899 11.6778C11.8899 11.1793 11.4432 10.8443 11.4432 10.2833C11.4432 9.72217 11.8903 9.34183 11.8903 8.77817C11.8825 8.52447 11.7966 8.27936 11.6445 8.07617" stroke="black" stroke-width="0.7" stroke-linecap="round"/>
<path d="M8.54528 15.1143C8.67052 14.9389 8.74034 14.73 8.74573 14.5146C8.74573 14.2148 8.299 13.5997 8.299 13.1012C8.299 12.6026 8.74573 12.2668 8.74573 11.7053C8.74573 11.1438 8.299 10.7656 8.299 10.2015C8.29545 9.94583 8.38254 9.69713 8.54485 9.49952" stroke="black" stroke-width="0.7" stroke-linecap="round"/>
<path d="M14.7518 11.1154C15.0885 11.0152 15.4538 11.2157 15.554 11.8174C15.6209 12.2172 15.7208 13.0193 15.8539 14.2237C15.8658 14.3183 15.8558 14.4145 15.8246 14.5046C15.7935 14.5948 15.7419 14.6766 15.674 14.7436C15.6061 14.8106 15.5237 14.8611 15.4332 14.8911C15.3426 14.9211 15.2463 14.9299 15.1519 14.9167C14.6839 14.9227 14.1826 14.9227 13.6481 14.9167L13.3482 16.3301C13.3253 16.4718 13.252 16.6005 13.1419 16.6925C13.0317 16.7846 12.8921 16.8338 12.7486 16.8312C12.6508 16.833 12.554 16.8114 12.4661 16.7684C12.3783 16.7253 12.3019 16.662 12.2434 16.5837C12.1848 16.5053 12.1457 16.4142 12.1293 16.3177C12.1129 16.2213 12.1196 16.1223 12.149 16.029C12.2158 15.7618 12.3494 15.1601 12.5499 14.2241C12.564 14.0786 12.6348 13.9444 12.747 13.8507C12.8592 13.7569 13.0038 13.7111 13.1495 13.723H14.5531C14.4626 13.0545 14.3957 12.5199 14.3526 12.119C14.288 11.5163 14.4164 11.2157 14.7518 11.1154Z" stroke="black" stroke-width="0.7"/>
<path d="M12.0561 17.781H15.1643V15.8758H16.9693V13.9707H17.8717" stroke="black" stroke-width="0.7" stroke-linecap="round"/>
</svg>
