<svg width="59" height="59" viewBox="0 0 59 59" fill="none" xmlns="http://www.w3.org/2000/svg">
<path d="M29.017 57.034C44.4904 57.034 57.034 44.4904 57.034 29.017C57.034 13.5436 44.4904 1 29.017 1C13.5436 1 1 13.5436 1 29.017C1 44.4904 13.5436 57.034 29.017 57.034Z" stroke="black" stroke-width="2"/>
<path d="M33.5773 23.4824C34.6586 23.4824 35.5353 22.6058 35.5353 21.5244C35.5353 20.443 34.6586 19.5664 33.5773 19.5664C32.4959 19.5664 31.6193 20.443 31.6193 21.5244C31.6193 22.6058 32.4959 23.4824 33.5773 23.4824Z" stroke="black" stroke-width="1.5"/>
<path d="M22.1372 37.564C21.8448 37.1546 21.6818 36.667 21.6693 36.164C21.6693 35.464 22.7113 34.028 22.7113 32.864C22.7113 31.7 21.6693 30.918 21.6693 29.608C21.6693 28.298 22.7113 27.414 22.7113 26.097C22.7224 25.4996 22.5188 24.9179 22.1372 24.458" stroke="black" stroke-width="1.5" stroke-linecap="round"/>
<path d="M25.8503 30.6324C25.5578 30.223 25.3948 29.7354 25.3823 29.2324C25.3823 28.5324 26.4253 27.0964 26.4253 25.9324C26.4253 24.7684 25.3823 23.9864 25.3823 22.6764C25.3823 21.3664 26.4263 20.4784 26.4263 19.1624C26.4079 18.5701 26.2074 17.9978 25.8523 17.5234" stroke="black" stroke-width="1.5" stroke-linecap="round"/>
<path d="M18.6163 33.9541C18.9087 33.5447 19.0717 33.0571 19.0843 32.5541C19.0843 31.8541 18.0413 30.4181 18.0413 29.2541C18.0413 28.0901 19.0843 27.3061 19.0843 25.9951C19.0843 24.6841 18.0413 23.8011 18.0413 22.4841C18.033 21.8871 18.2363 21.3065 18.6153 20.8451" stroke="black" stroke-width="1.5" stroke-linecap="round"/>
<path d="M33.1073 24.618C33.8933 24.384 34.7463 24.852 34.9803 26.257C35.1363 27.1903 35.3696 29.063 35.6803 31.875C35.7082 32.096 35.6849 32.3204 35.6121 32.5309C35.5393 32.7414 35.4189 32.9323 35.2604 33.0888C35.1019 33.2453 34.9095 33.3632 34.698 33.4333C34.4866 33.5034 34.2619 33.5238 34.0413 33.493C32.9486 33.507 31.7783 33.507 30.5303 33.493L29.8303 36.793C29.7767 37.1238 29.6056 37.4242 29.3485 37.6391C29.0913 37.854 28.7653 37.969 28.4303 37.963C28.2019 37.967 27.9759 37.9167 27.7708 37.8162C27.5657 37.7157 27.3875 37.5679 27.2507 37.385C27.114 37.202 27.0227 36.9892 26.9844 36.7641C26.946 36.5389 26.9618 36.3079 27.0303 36.09C27.1863 35.466 27.4983 34.0613 27.9663 31.876C27.9993 31.5362 28.1646 31.2231 28.4265 31.0041C28.6885 30.7852 29.026 30.6781 29.3663 30.706H32.6433C32.4319 29.1453 32.2759 27.897 32.1753 26.961C32.0243 25.554 32.3243 24.852 33.1073 24.618Z" stroke="black" stroke-width="1.5"/>
<path d="M26.8132 40.1802H34.0702V35.7322H38.2842V31.2842H40.3912" stroke="black" stroke-width="1.5" stroke-linecap="round"/>
</svg>
