<svg width="19" height="19" viewBox="0 0 19 19" fill="none" xmlns="http://www.w3.org/2000/svg">
<path d="M9.5 0C4.26179 0 0 4.26179 0 9.5C0 14.7382 4.26179 19 9.5 19C14.7382 19 19 14.7382 19 9.5C19 4.26179 14.7382 0 9.5 0ZM9.5 17.8125C4.91643 17.8125 1.18751 14.0836 1.18751 9.50004C1.18751 4.91646 4.91643 1.18751 9.5 1.18751C14.0836 1.18751 17.8125 4.91643 17.8125 9.5C17.8125 14.0836 14.0836 17.8125 9.5 17.8125V17.8125Z" fill="#F08200"/>
<path d="M8.90625 13.0625H10.0938V14.25H8.90625V13.0625Z" fill="#F08200"/>
<path d="M8.90625 4.75H10.0937V11.875H8.90625V4.75Z" fill="#F08200"/>
</svg>
