<svg width="58" height="58" viewBox="0 0 58 58" fill="none" xmlns="http://www.w3.org/2000/svg">
<path d="M29.05 57.1C44.5416 57.1 57.1 44.5416 57.1 29.05C57.1 13.5584 44.5416 1 29.05 1C13.5584 1 1 13.5584 1 29.05C1 44.5416 13.5584 57.1 29.05 57.1Z" stroke="black" stroke-width="1.5"/>
<path d="M26.017 31.0934C27.5198 31.0934 28.738 29.8751 28.738 28.3724C28.738 26.8696 27.5198 25.6514 26.017 25.6514C24.5142 25.6514 23.296 26.8696 23.296 28.3724C23.296 29.8751 24.5142 31.0934 26.017 31.0934Z" stroke="black" stroke-width="1.5"/>
<path d="M34.706 39.108H31.715C31.4954 39.1002 31.2766 39.1376 31.0721 39.2181C30.8677 39.2985 30.682 39.4202 30.5266 39.5756C30.3713 39.731 30.2496 39.9167 30.1691 40.1211C30.0887 40.3256 30.0512 40.5444 30.059 40.764C30.0442 40.9855 30.0768 41.2076 30.1547 41.4154C30.2326 41.6233 30.354 41.8121 30.5108 41.9693C30.6676 42.1264 30.8561 42.2483 31.0638 42.3267C31.2715 42.4051 31.4935 42.4383 31.715 42.424H38.67C39.0906 42.3848 39.4833 42.1962 39.7768 41.8924C40.0703 41.5886 40.2453 41.1897 40.27 40.768C40.27 39.742 39.996 39.368 39.334 39.112C38.8927 38.938 37.899 38.6067 36.353 38.118C36.5737 35.0267 36.684 32.7083 36.684 31.163C36.684 28.845 34.366 20.834 24.761 20.834C23.436 20.896 22.443 20.959 22.443 21.89C22.443 22.821 23.437 22.884 25.093 23.215C26.749 23.546 30.723 23.877 32.71 28.183C32.71 28.514 31.716 28.514 31.385 28.845C28.9391 32.0412 25.9038 34.7395 22.443 36.794C20.787 37.788 21.118 38.719 21.118 39.112" stroke="black" stroke-width="1.5"/>
<path d="M41.464 39.6181C41.8846 39.5789 42.2773 39.3903 42.5708 39.0865C42.8643 38.7827 43.0393 38.3838 43.064 37.9621C43.064 36.9361 42.79 36.5621 42.128 36.3061C41.6867 36.1321 40.693 35.8008 39.147 35.3121C39.307 32.9681 39.3693 31.0314 39.334 29.5021C39.234 25.1781 35.4 18.6861 27.224 18.0271C26.8709 18.0014 26.5214 18.1124 26.2479 18.3373C25.9745 18.5622 25.798 18.8836 25.755 19.2351" stroke="black"/>
<path d="M43.955 37.091C44.3756 37.0518 44.7683 36.8632 45.0618 36.5594C45.3553 36.2556 45.5303 35.8567 45.555 35.435C45.555 34.409 45.281 34.035 44.619 33.779C44.1777 33.605 43.184 33.2737 41.638 32.785C41.798 30.441 41.8603 28.5043 41.825 26.975C41.639 21.097 36.025 15.923 30.046 15.5C29.127 15.5 28.405 15.923 28.405 16.585" stroke="black"/>
<path d="M24.429 39.1078C26.2792 37.7789 28.0487 36.341 29.728 34.8018C29.7504 35.915 29.6393 37.0269 29.397 38.1138C27.1332 38.7531 24.7942 39.0873 22.442 39.1078H15.156C14.7168 39.1078 14.2956 39.2822 13.985 39.5928C13.6745 39.9033 13.5 40.3246 13.5 40.7638C13.5 41.203 13.6745 41.6242 13.985 41.9347C14.2956 42.2453 14.7168 42.4198 15.156 42.4198H23.105C25.4628 42.4279 27.8081 42.0765 30.06 41.3778" stroke="black" stroke-width="1.5"/>
</svg>
