<svg width="35" height="35" viewBox="0 0 35 35" fill="none" xmlns="http://www.w3.org/2000/svg">
<path d="M17.5 34C26.6127 34 34 26.6127 34 17.5C34 8.3873 26.6127 1 17.5 1C8.3873 1 1 8.3873 1 17.5C1 26.6127 8.3873 34 17.5 34Z" stroke="black" stroke-width="1.5"/>
<path d="M16.29 18.0986C17.174 18.0986 17.8906 17.382 17.8906 16.498C17.8906 15.6141 17.174 14.8975 16.29 14.8975C15.406 14.8975 14.6894 15.6141 14.6894 16.498C14.6894 17.382 15.406 18.0986 16.29 18.0986Z" stroke="black"/>
<path d="M20.4099 23.8041H18.6505C18.5214 23.7995 18.3926 23.8215 18.2724 23.8689C18.1521 23.9162 18.0429 23.9878 17.9515 24.0792C17.8601 24.1706 17.7885 24.2798 17.7412 24.4001C17.6939 24.5203 17.6718 24.6491 17.6764 24.7782C17.6677 24.9085 17.6869 25.0392 17.7327 25.1614C17.7785 25.2837 17.85 25.3948 17.9422 25.4872C18.0344 25.5797 18.1453 25.6513 18.2675 25.6975C18.3896 25.7436 18.5202 25.7631 18.6505 25.7547H22.7417C22.9891 25.7316 23.2201 25.6207 23.3928 25.442C23.5654 25.2633 23.6683 25.0286 23.6829 24.7806C23.6829 24.177 23.5217 23.957 23.1323 23.8065C22.8727 23.7041 22.2882 23.5092 21.3788 23.2217C21.5086 21.4033 21.5735 20.0396 21.5735 19.1306C21.5735 17.767 20.2099 13.0547 14.5599 13.0547C13.7805 13.0912 13.1964 13.1282 13.1964 13.6759C13.1964 14.2235 13.7811 14.2606 14.7552 14.4553C15.7294 14.65 18.067 14.8447 19.2358 17.3776C19.2358 17.5723 18.6511 17.5723 18.4564 17.767C17.0177 19.6472 15.2322 21.2344 13.1964 22.4429C12.2223 23.0276 12.417 23.5753 12.417 23.8065" stroke="black"/>
<path d="M24.3853 24.1051C24.6327 24.082 24.8637 23.9711 25.0363 23.7924C25.209 23.6137 25.3119 23.379 25.3265 23.131C25.3265 22.5274 25.1653 22.3074 24.7759 22.1568C24.5163 22.0545 23.9317 21.8596 23.0223 21.5721C23.1165 20.1933 23.1531 19.0541 23.1323 18.1545C23.0735 15.611 20.8182 11.7921 16.0088 11.4045C15.8011 11.3894 15.5955 11.4547 15.4346 11.587C15.2738 11.7193 15.17 11.9083 15.1447 12.1151" stroke="black"/>
<path d="M25.8509 22.6186C26.0983 22.5955 26.3293 22.4846 26.5019 22.3059C26.6746 22.1272 26.7775 21.8925 26.7921 21.6444C26.7921 21.0409 26.6309 20.8209 26.2415 20.6703C25.9819 20.568 25.3974 20.3731 24.4879 20.0856C24.5821 18.7068 24.6187 17.5676 24.5979 16.668C24.4885 13.2103 21.1862 10.1668 17.6691 9.91797C17.1285 9.91797 16.7038 10.1668 16.7038 10.5562" stroke="black"/>
<path d="M14.3649 23.8044C15.4533 23.0227 16.4942 22.1769 17.482 21.2715C17.4951 21.9263 17.4298 22.5804 17.2873 23.2197C15.9556 23.5958 14.5798 23.7924 13.1961 23.8044H8.91021C8.65186 23.8044 8.40409 23.9071 8.22141 24.0897C8.03873 24.2724 7.9361 24.5202 7.9361 24.7785C7.9361 25.0369 8.03873 25.2847 8.22141 25.4673C8.40409 25.65 8.65186 25.7527 8.91021 25.7527H13.5861C14.973 25.7574 16.3526 25.5507 17.6773 25.1397" stroke="black"/>
</svg>
