<svg width="26" height="26" viewBox="0 0 26 26" fill="none" xmlns="http://www.w3.org/2000/svg">
<path d="M13 25C19.6274 25 25 19.6274 25 13C25 6.37258 19.6274 1 13 1C6.37258 1 1 6.37258 1 13C1 19.6274 6.37258 25 13 25Z" stroke="black"/>
<path d="M12.6982 13.8721C13.3411 13.8721 13.8622 13.3509 13.8622 12.708C13.8622 12.0651 13.3411 11.5439 12.6982 11.5439C12.0553 11.5439 11.5341 12.0651 11.5341 12.708C11.5341 13.3509 12.0553 13.8721 12.6982 13.8721Z" stroke="black" stroke-width="0.7"/>
<path d="M15.4183 17.3012H14.1388C14.0448 17.2978 13.9512 17.3138 13.8638 17.3483C13.7763 17.3827 13.6968 17.4347 13.6304 17.5012C13.5639 17.5677 13.5118 17.6471 13.4774 17.7346C13.443 17.822 13.427 17.9157 13.4303 18.0096C13.424 18.1044 13.4379 18.1994 13.4713 18.2883C13.5046 18.3772 13.5565 18.458 13.6236 18.5252C13.6907 18.5925 13.7713 18.6446 13.8602 18.6781C13.949 18.7117 14.044 18.7259 14.1388 18.7198H17.1142C17.2941 18.703 17.4621 18.6223 17.5877 18.4923C17.7132 18.3624 17.7881 18.1917 17.7987 18.0113C17.7987 17.5724 17.6814 17.4124 17.3982 17.3029C17.2094 17.2284 16.7843 17.0867 16.1229 16.8776C16.2173 15.5551 16.2646 14.5633 16.2646 13.9022C16.2646 12.9106 15.2729 9.4834 11.1638 9.4834C10.597 9.50992 10.1721 9.53687 10.1721 9.93516C10.1721 10.3335 10.5974 10.3604 11.3058 10.502C12.0143 10.6436 13.7144 10.7852 14.5644 12.6274C14.5644 12.769 14.1392 12.769 13.9976 12.9106C12.9512 14.2779 11.6527 15.4323 10.1721 16.3112C9.4637 16.7364 9.6053 17.1347 9.6053 17.3029" stroke="black" stroke-width="0.7"/>
<path d="M18.31 17.5196C18.49 17.5028 18.6579 17.4222 18.7835 17.2922C18.9091 17.1622 18.9839 16.9916 18.9945 16.8112C18.9945 16.3722 18.8773 16.2122 18.5941 16.1027C18.4053 16.0283 17.9802 15.8865 17.3188 15.6775C17.3872 14.6747 17.4139 13.8462 17.3988 13.1919C17.356 11.3421 15.7158 8.56474 12.218 8.28281C12.067 8.27181 11.9175 8.31933 11.8005 8.41553C11.6835 8.51174 11.608 8.64925 11.5896 8.7996" stroke="black" stroke-width="0.7"/>
<path d="M19.3757 16.4389C19.5557 16.4222 19.7237 16.3415 19.8492 16.2115C19.9748 16.0816 20.0497 15.9109 20.0602 15.7305C20.0602 15.2916 19.943 15.1316 19.6598 15.022C19.471 14.9476 19.0459 14.8059 18.3845 14.5968C18.453 13.594 18.4796 12.7655 18.4645 12.1112C18.3849 9.59659 15.9832 7.38311 13.4254 7.20215C13.0322 7.20215 12.7233 7.38311 12.7233 7.66632" stroke="black" stroke-width="0.7"/>
<path d="M11.0221 17.3001C11.8137 16.7316 12.5707 16.1165 13.2891 15.458C13.2987 15.9343 13.2511 16.41 13.1475 16.8749C12.179 17.1484 11.1784 17.2914 10.1721 17.3001H7.05507C6.86718 17.3001 6.68698 17.3748 6.55412 17.5076C6.42126 17.6405 6.34662 17.8207 6.34662 18.0086C6.34662 18.1965 6.42126 18.3767 6.55412 18.5095C6.68698 18.6424 6.86718 18.717 7.05507 18.717H10.4557C11.4644 18.7205 12.4677 18.5702 13.4311 18.2713" stroke="black" stroke-width="0.7"/>
</svg>
